<svg width="160" height="60" viewBox="0 0 160 60" fill="none" xmlns="http://www.w3.org/2000/svg">
<rect width="160" height="60" rx="12" fill="#1E1E1E"/>
<path fill-rule="evenodd" clip-rule="evenodd" d="M11 28.5V15.375C11 14.625 11.625 14 12.25 14C12.875 14 13.125 14.125 13.5 14.375L37.625 27.625C38.125 27.875 38.375 28.25 38.375 28.625C38.375 29 38.125 29.375 37.625 29.625L13.5 42.875C13.25 43 12.875 43.25 12.25 43.25C11.625 43.25 11 42.625 11 41.875V28.5Z" fill="url(#paint0_linear_116_1624)"/>
<path fill-rule="evenodd" clip-rule="evenodd" d="M26.625 28.625L12 14C12.125 14 12.125 14 12.25 14C12.875 14 13.125 14.125 13.5 14.375L31.25 24.125L26.625 28.625Z" fill="url(#paint1_linear_116_1624)"/>
<path fill-rule="evenodd" clip-rule="evenodd" d="M31.125 33L26.625 28.5L31.25 23.875L37.625 27.375C38.125 27.625 38.375 28 38.375 28.375C38.375 28.75 38.125 29.125 37.625 29.375L31.125 33Z" fill="url(#paint2_linear_116_1624)"/>
<path fill-rule="evenodd" clip-rule="evenodd" d="M12.125 43L26.625 28.5L31.125 33L13.5 42.625C13.125 42.875 12.875 43 12.125 43C12.25 43 12.25 43 12.125 43Z" fill="url(#paint3_linear_116_1624)"/>
<path fill-rule="evenodd" clip-rule="evenodd" d="M87.6259 46.375C87.0009 45.875 86.5009 45 86.2509 44.5L88.2509 43.625C88.3759 43.875 88.6259 44.25 88.8759 44.625C89.3759 45.125 90.1259 45.625 90.8759 45.625C91.6259 45.625 92.5009 45.25 93.0009 44.625C93.3759 44 93.6259 43.375 93.6259 42.5V41.75C92.1259 43.625 89.0009 43.375 87.2509 41.375C85.3759 39.375 85.3759 36 87.2509 34C89.1259 32.125 91.8759 31.875 93.5009 33.625V32.75H95.6259V42.125C95.6259 44.5 94.7509 45.875 93.6259 46.75C92.8759 47.375 91.7509 47.625 90.7509 47.625C89.6259 47.5 88.5009 47.125 87.6259 46.375ZM140.001 46.875L142.126 41.875L138.376 33.25H140.501L143.126 39.375L145.751 33.25H147.876L142.126 46.875H140.001ZM129.876 42.125C129.251 41.5 129.001 40.625 129.001 39.75C129.001 39 129.251 38.25 129.751 37.75C130.626 36.875 131.876 36.5 133.251 36.5C134.126 36.5 134.876 36.625 135.501 37C135.501 35.5 134.251 34.875 133.251 34.875C132.376 34.875 131.501 35.375 131.126 36.25L129.251 35.5C129.626 34.625 130.626 33 133.126 33C134.376 33 135.626 33.375 136.376 34.25C137.126 35.125 137.376 36.125 137.376 37.5V42.75H135.251V41.875C135.001 42.25 134.501 42.5 134.126 42.75C133.626 43 133.001 43.125 132.376 43.125C131.626 43 130.501 42.75 129.876 42.125ZM63.2509 37.625C63.2509 35.125 65.1259 32.375 68.5009 32.375C71.7509 32.375 73.7509 35.125 73.7509 37.625C73.7509 40.125 71.8759 42.875 68.5009 42.875C65.1259 42.875 63.2509 40.125 63.2509 37.625ZM74.5009 37.625C74.5009 35.125 76.3759 32.375 79.7509 32.375C83.0009 32.375 85.0009 35.125 85.0009 37.625C85.0009 40.125 83.1259 42.875 79.7509 42.875C76.5009 42.875 74.5009 40.125 74.5009 37.625ZM49.1259 40.375C46.0009 37.25 46.1259 32.125 49.2509 28.875C50.8759 27.25 52.8759 26.5 55.0009 26.5C57.0009 26.5 59.0009 27.25 60.5009 28.75L59.0009 30.375C56.7509 28.125 53.1259 28.25 51.0009 30.5C48.7509 32.875 48.7509 36.5 51.0009 38.875C53.2509 41.25 57.0009 41.375 59.2509 39C60.0009 38.25 60.2509 37.25 60.3759 36.25H55.1259V34H62.5009C62.6259 34.5 62.6259 35.125 62.6259 35.75C62.6259 37.625 61.8759 39.5 60.6259 40.75C59.2509 42.125 57.2509 42.875 55.2509 42.875C53.0009 42.75 50.7509 42 49.1259 40.375ZM102.001 41.25C100.126 39.25 100.126 35.875 102.001 33.75C103.876 31.75 107.001 31.75 108.751 33.75C109.376 34.375 109.751 35.25 110.126 36.125L103.251 39C103.626 39.875 104.501 40.625 105.751 40.625C106.876 40.625 107.626 40.25 108.376 39.125L110.251 40.375C110.001 40.625 109.751 40.875 109.626 41.125C107.501 43.25 103.876 43.25 102.001 41.25ZM115.001 42.75V28.875H119.501C122.126 28.875 124.251 30.75 124.251 33C124.251 35.25 122.376 37.125 120.001 37.125H117.251V42.625L115.001 42.75ZM125.501 42.75V28.875H127.626V42.75H125.501ZM97.2509 42.5V27H99.5009V42.5H97.2509ZM135.376 38.625C134.876 38.25 134.126 38.125 133.376 38.125C131.876 38.125 131.001 38.875 131.001 39.75C131.001 40.625 131.876 41.125 132.751 41.125C134.001 41.125 135.376 40.125 135.376 38.625ZM71.3759 37.625C71.3759 36.125 70.3759 34.5 68.5009 34.5C66.6259 34.5 65.6259 36.125 65.6259 37.625C65.6259 39.125 66.6259 40.75 68.5009 40.75C70.2509 40.75 71.3759 39.125 71.3759 37.625ZM82.6259 37.625C82.6259 36.125 81.6259 34.5 79.7509 34.5C77.8759 34.5 76.8759 36.125 76.8759 37.625C76.8759 39.125 77.8759 40.75 79.7509 40.75C81.6259 40.75 82.6259 39.125 82.6259 37.625ZM93.7509 38.5C93.7509 38.375 93.7509 38.25 93.8759 38.125C93.8759 38 93.8759 37.75 93.8759 37.625C93.8759 37.5 93.8759 37.25 93.8759 37.125V37C93.8759 36.875 93.7509 36.625 93.7509 36.5C93.3759 35.25 92.2509 34.375 91.1259 34.375C89.6259 34.375 88.3759 35.875 88.3759 37.5C88.3759 39.25 89.6259 40.625 91.2509 40.625C92.2509 40.75 93.2509 39.875 93.7509 38.5ZM102.876 37.375L107.501 35.375C107.001 34.5 106.251 34.25 105.626 34.25C103.751 34.375 102.626 36.375 102.876 37.375ZM122.001 33.125C122.001 31.875 121.001 31 119.626 31H117.126V35.375H119.751C121.001 35.375 122.001 34.375 122.001 33.125Z" fill="white"/>
<path fill-rule="evenodd" clip-rule="evenodd" d="M141.625 44.375H141.5V44.25H141.625H141.5V44.375H141.625Z" fill="white"/>
<path fill-rule="evenodd" clip-rule="evenodd" d="M141.875 44.375C141.875 44.25 141.875 44.25 141.875 44.375C141.75 44.25 141.75 44.25 141.875 44.375C141.75 44.375 141.75 44.375 141.875 44.375ZM141.875 44.25C141.875 44.375 141.875 44.375 141.875 44.25C141.75 44.375 141.875 44.375 141.875 44.25Z" fill="white"/>
<path fill-rule="evenodd" clip-rule="evenodd" d="M142 44.25H141.875H142V44.375V44.25Z" fill="white"/>
<path d="M47.375 16.625C47.375 14.375 49 13 51 13C52.375 13 53.25 13.625 53.875 14.5L52.875 15.125C52.5 14.625 51.875 14.25 51 14.25C49.625 14.25 48.625 15.25 48.625 16.75C48.625 18.25 49.625 19.25 51 19.25C51.75 19.25 52.375 18.875 52.625 18.625V17.5H50.625V16.375H54V19C53.375 19.75 52.375 20.25 51.125 20.25C49 20.25 47.375 18.75 47.375 16.625Z" fill="white"/>
<path d="M55.5 20.125V13.125H60.25V14.25H56.625V16H60.125V17.125H56.625V19.125H60.25V20.25L55.5 20.125Z" fill="white"/>
<path d="M63.75 20.125V14.25H61.625V13.125H67.125V14.25H65V20.125H63.75Z" fill="white"/>
<path d="M71.375 20.125V13.125H72.625V20.125H71.375Z" fill="white"/>
<path d="M76 20.125V14.25H73.875V13.125H79.375V14.25H77.25V20.125H76Z" fill="white"/>
<path d="M83.375 16.625C83.375 14.5 84.875 13 87 13C89.125 13 90.625 14.5 90.625 16.625C90.625 18.75 89.125 20.25 87 20.25C84.875 20.25 83.375 18.625 83.375 16.625ZM89.25 16.625C89.25 15.125 88.375 14.125 86.875 14.125C85.5 14.125 84.5 15.25 84.5 16.625C84.5 18.125 85.375 19.125 86.875 19.125C88.375 19.125 89.25 18 89.25 16.625Z" fill="white"/>
<path d="M96.875 20.125L93.25 15.125V20.125H92V13.125H93.25L96.875 18V13.125H98.125V20.125H96.875Z" fill="white"/>
<defs>
<linearGradient id="paint0_linear_116_1624" x1="19.0724" y1="12.2199" x2="26.0701" y2="40.9585" gradientUnits="userSpaceOnUse">
<stop stop-color="#006884"/>
<stop offset="1" stop-color="#8AD1D0"/>
</linearGradient>
<linearGradient id="paint1_linear_116_1624" x1="10.5329" y1="16.338" x2="29.6029" y2="26.6474" gradientUnits="userSpaceOnUse">
<stop stop-color="#24BBB6"/>
<stop offset="1" stop-color="#DBE692"/>
</linearGradient>
<linearGradient id="paint2_linear_116_1624" x1="32.5" y1="33.5251" x2="32.5" y2="23.5896" gradientUnits="userSpaceOnUse">
<stop stop-color="#FCC072"/>
<stop offset="1" stop-color="#F58A5B"/>
</linearGradient>
<linearGradient id="paint3_linear_116_1624" x1="14.2064" y1="45.55" x2="29.271" y2="30.2185" gradientUnits="userSpaceOnUse">
<stop stop-color="#712B8F"/>
<stop offset="1" stop-color="#EA1D27"/>
</linearGradient>
</defs>
</svg>
