<svg width="160" height="60" viewBox="0 0 160 60" fill="none" xmlns="http://www.w3.org/2000/svg">
<rect width="160" height="60" rx="12" fill="#1E1E1E"/>
<path d="M33.7495 29.75C33.7495 25.875 36.9995 24 37.1245 23.875C35.2495 21.25 32.4995 20.875 31.4995 20.75C29.1245 20.5 26.7495 22.125 25.6245 22.125C24.3745 22.125 22.4995 20.75 20.4995 20.75C17.8745 20.75 15.4995 22.25 14.1245 24.625C11.3745 29.375 13.3745 36.375 15.9995 40.25C17.3745 42.125 18.8745 44.25 20.8745 44.125C22.8745 44 23.6245 42.875 25.9995 42.875C28.3745 42.875 28.9995 44.125 31.1245 44.125C33.2495 44.125 34.6245 42.25 35.8745 40.375C37.3745 38.25 37.9995 36.125 37.9995 36C37.8745 35.875 33.7495 34.375 33.7495 29.75Z" fill="white"/>
<path d="M29.8713 18.25C30.8713 16.875 31.6213 15.125 31.4963 13.25C29.9963 13.375 27.9963 14.25 26.9963 15.625C25.9963 16.75 25.1213 18.625 25.3713 20.375C26.9963 20.5 28.7463 19.5 29.8713 18.25Z" fill="white"/>
<path d="M62.25 43.875H59.5L58 39.125H52.75L51.375 43.875H48.75L54 27.75H57.25L62.25 43.875ZM57.5 37.125L56.125 32.875C56 32.5 55.75 31.375 55.25 29.875C55.125 30.5 54.875 31.625 54.5 32.875L53.125 37.125H57.5Z" fill="white"/>
<path d="M75.625 38C75.625 40 75.125 41.5 74 42.75C73 43.75 71.875 44.25 70.375 44.25C68.875 44.25 67.75 43.75 67.125 42.625V48.75H64.5V36.25C64.5 35 64.5 33.75 64.375 32.375H66.625L66.75 34.25C67.625 32.875 68.875 32.125 70.625 32.125C72 32.125 73.125 32.625 74 33.75C75.125 34.75 75.625 36.125 75.625 38ZM73 38C73 36.875 72.75 35.875 72.25 35.25C71.75 34.5 71 34.125 70 34.125C69.375 34.125 68.75 34.375 68.25 34.75C67.75 35.125 67.375 35.75 67.25 36.375C67.125 36.75 67.125 37 67.125 37.125V39.125C67.125 40 67.375 40.625 67.875 41.25C68.375 41.875 69.125 42.125 69.875 42.125C70.875 42.125 71.625 41.75 72.125 41C72.75 40.25 73 39.25 73 38Z" fill="white"/>
<path d="M89 38C89 40 88.5 41.5 87.375 42.75C86.375 43.75 85.25 44.25 83.75 44.25C82.25 44.25 81.125 43.75 80.5 42.625V48.75H77.875V36.25C77.875 35 77.875 33.75 77.75 32.375H80L80.125 34.25C81 32.875 82.25 32.125 84 32.125C85.375 32.125 86.5 32.625 87.375 33.75C88.5 34.75 89 36.125 89 38ZM86.375 38C86.375 36.875 86.125 35.875 85.625 35.25C85.125 34.5 84.375 34.125 83.375 34.125C82.75 34.125 82.125 34.375 81.625 34.75C81.125 35.125 80.75 35.75 80.625 36.375C80.5 36.75 80.5 37 80.5 37.125V39.125C80.5 40 80.75 40.625 81.25 41.25C81.75 41.875 82.5 42.125 83.25 42.125C84.25 42.125 85 41.75 85.5 41C86.125 40.25 86.375 39.25 86.375 38Z" fill="white"/>
<path d="M104 39.375C104 40.75 103.5 41.875 102.625 42.75C101.625 43.75 100.125 44.125 98.25 44.125C96.5 44.125 95.125 43.75 94.125 43.125L94.75 41C95.875 41.625 97.125 42 98.5 42C99.5 42 100.25 41.75 100.75 41.375C101.25 40.875 101.5 40.375 101.5 39.625C101.5 39 101.25 38.375 100.875 38C100.375 37.5 99.625 37.125 98.625 36.75C95.75 35.75 94.375 34.125 94.375 32.125C94.375 30.75 94.875 29.75 95.875 28.875C96.875 28 98.125 27.625 99.875 27.625C101.375 27.625 102.5 27.875 103.5 28.375L102.875 30.5C102 30 101 29.75 99.75 29.75C98.875 29.75 98.125 30 97.625 30.375C97.25 30.75 97 31.25 97 31.875C97 32.5 97.25 33 97.75 33.5C98.125 33.875 99 34.25 100.125 34.75C101.5 35.25 102.5 36 103.25 36.75C103.625 37.375 104 38.25 104 39.375Z" fill="white"/>
<path d="M112.5 34.25H109.625V39.875C109.625 41.25 110.125 42 111.125 42C111.625 42 112 42 112.25 41.875L112.375 43.875C111.875 44.125 111.25 44.125 110.375 44.125C109.375 44.125 108.5 43.875 108 43.25C107.375 42.625 107.125 41.625 107.125 40.125V34.25H105.375V32.25H107.125V30.125L109.625 29.375V32.25H112.5V34.25Z" fill="white"/>
<path d="M125.375 38C125.375 39.75 124.875 41.25 123.875 42.375C122.75 43.5 121.375 44.125 119.625 44.125C117.875 44.125 116.5 43.5 115.5 42.375C114.5 41.25 114 39.875 114 38.125C114 36.375 114.5 34.875 115.625 33.75C116.625 32.625 118.125 32 119.875 32C121.625 32 123 32.625 124 33.75C124.875 34.875 125.375 36.25 125.375 38ZM122.625 38.125C122.625 37 122.375 36.125 121.875 35.375C121.375 34.5 120.5 34 119.5 34C118.5 34 117.625 34.5 117.125 35.375C116.625 36.125 116.375 37.125 116.375 38.125C116.375 39.25 116.625 40.125 117.125 40.875C117.625 41.75 118.5 42.25 119.5 42.25C120.5 42.25 121.25 41.75 121.875 40.875C122.375 40.125 122.625 39.125 122.625 38.125Z" fill="white"/>
<path d="M133.75 34.5C133.5 34.5 133.25 34.375 132.875 34.375C132 34.375 131.25 34.75 130.75 35.375C130.375 36 130.125 36.75 130.125 37.625V43.75H127.5V35.75C127.5 34.375 127.5 33.25 127.375 32.125H129.625L129.75 34.375H129.875C130.125 33.625 130.625 33 131.125 32.5C131.75 32.125 132.375 31.875 133 31.875C133.25 31.875 133.5 31.875 133.625 31.875L133.75 34.5Z" fill="white"/>
<path d="M145.25 37.5C145.25 38 145.25 38.375 145.125 38.625H137.375C137.375 39.75 137.75 40.625 138.5 41.25C139.125 41.75 140 42.125 141 42.125C142.125 42.125 143.25 42 144.125 41.625L144.5 43.375C143.375 43.875 142.125 44.125 140.625 44.125C138.875 44.125 137.375 43.625 136.375 42.5C135.375 41.5 134.875 40 134.875 38.25C134.875 36.5 135.375 35 136.25 33.875C137.25 32.625 138.625 32 140.375 32C142 32 143.375 32.625 144.125 33.875C145 34.875 145.25 36.125 145.25 37.5ZM142.875 36.875C142.875 36.125 142.75 35.5 142.375 34.875C141.875 34.125 141.25 33.75 140.375 33.75C139.5 33.75 138.875 34.125 138.375 34.75C138 35.25 137.75 36 137.625 36.75H142.875V36.875Z" fill="white"/>
<path d="M56.75 17.875C56.75 19.25 56.375 20.375 55.5 21.125C54.75 21.75 53.625 22.125 52.125 22.125C51.375 22.125 50.75 22.125 50.25 22V14.25C50.875 14.125 51.625 14.125 52.5 14.125C53.875 14.125 54.875 14.375 55.625 15C56.25 15.625 56.75 16.625 56.75 17.875ZM55.375 17.875C55.375 17 55.125 16.25 54.625 15.75C54.125 15.25 53.375 15 52.5 15C52.125 15 51.75 15 51.5 15.125V21C51.625 21 52 21 52.375 21C53.375 21 54.125 20.75 54.625 20.25C55.125 19.75 55.375 18.875 55.375 17.875Z" fill="white"/>
<path d="M63.75 19.125C63.75 20 63.5 20.75 63 21.25C62.5 21.875 61.75 22.125 60.875 22.125C60 22.125 59.375 21.875 58.875 21.25C58.375 20.75 58.125 20 58.125 19.125C58.125 18.25 58.375 17.5 58.875 17C59.375 16.375 60.125 16.125 61 16.125C61.875 16.125 62.5 16.375 63 17C63.5 17.5 63.75 18.25 63.75 19.125ZM62.5 19.125C62.5 18.625 62.375 18.125 62.125 17.75C61.875 17.25 61.5 17.125 61 17.125C60.5 17.125 60.125 17.375 59.875 17.75C59.625 18.125 59.5 18.625 59.5 19.125C59.5 19.625 59.625 20.125 59.875 20.5C60.125 21 60.5 21.125 61 21.125C61.5 21.125 61.875 20.875 62.125 20.375C62.375 20.125 62.5 19.625 62.5 19.125Z" fill="white"/>
<path d="M73.375 16.25L71.625 22H70.5L69.75 19.5C69.5 18.875 69.375 18.25 69.25 17.625C69.125 18.25 69 18.875 68.75 19.5L68 22H66.875L65 16.25H66.25L66.875 19C67 19.625 67.125 20.25 67.25 20.875C67.375 20.375 67.5 19.75 67.75 19L68.5 16.25H69.5L70.25 18.875C70.5 19.5 70.625 20.125 70.75 20.75C70.875 20.125 71 19.5 71.125 18.875L71.875 16.25H73.375Z" fill="white"/>
<path d="M79.875 22H78.625V18.75C78.625 17.75 78.25 17.25 77.5 17.25C77.125 17.25 76.875 17.375 76.625 17.625C76.375 17.875 76.25 18.25 76.25 18.625V22H75V17.875C75 17.375 75 16.875 75 16.25H76.125V17.125C76.25 16.875 76.5 16.625 76.75 16.375C77.125 16.125 77.5 16 77.875 16C78.375 16 78.875 16.125 79.25 16.5C79.75 16.875 79.875 17.5 79.875 18.375V22Z" fill="white"/>
<path d="M83.375 22H82.125V13.625H83.375V22Z" fill="white"/>
<path d="M90.875 19.125C90.875 20 90.625 20.75 90.125 21.25C89.625 21.875 88.875 22.125 88 22.125C87.125 22.125 86.5 21.875 86 21.25C85.5 20.75 85.25 20 85.25 19.125C85.25 18.25 85.5 17.5 86 17C86.5 16.5 87.25 16.125 88.125 16.125C89 16.125 89.625 16.375 90.125 17C90.625 17.5 90.875 18.25 90.875 19.125ZM89.625 19.125C89.625 18.625 89.5 18.125 89.25 17.75C89 17.25 88.625 17.125 88.125 17.125C87.625 17.125 87.25 17.375 87 17.75C86.75 18.125 86.625 18.625 86.625 19.125C86.625 19.625 86.75 20.125 87 20.5C87.25 21 87.625 21.125 88.125 21.125C88.625 21.125 89 20.875 89.25 20.375C89.5 20.125 89.625 19.625 89.625 19.125Z" fill="white"/>
<path d="M97 22H95.875L95.75 21.375C95.375 21.875 94.75 22.125 94.125 22.125C93.625 22.125 93.125 22 92.875 21.625C92.625 21.25 92.375 20.875 92.375 20.5C92.375 19.75 92.625 19.25 93.25 18.875C93.875 18.5 94.625 18.375 95.75 18.375V18.25C95.75 17.5 95.375 17.125 94.625 17.125C94 17.125 93.625 17.25 93.125 17.5L92.875 16.625C93.375 16.25 94 16.125 94.875 16.125C96.375 16.125 97.125 16.875 97.125 18.5V20.625C97 21.25 97 21.625 97 22ZM95.75 20V19.125C94.375 19.125 93.625 19.5 93.625 20.25C93.625 20.5 93.75 20.75 93.875 20.875C94 21 94.25 21.125 94.5 21.125C94.75 21.125 95 21 95.25 20.875C95.5 20.75 95.625 20.5 95.75 20.25C95.75 20.25 95.75 20.125 95.75 20Z" fill="white"/>
<path d="M104.25 22H103.125V21.125C102.75 21.875 102.125 22.125 101.25 22.125C100.5 22.125 100 21.875 99.5 21.375C99 20.875 98.875 20.125 98.875 19.25C98.875 18.375 99.125 17.625 99.625 17C100.125 16.5 100.75 16.25 101.375 16.25C102.125 16.25 102.625 16.5 103 17V13.75H104.25V20.5C104.25 21 104.25 21.5 104.25 22ZM103 19.625V18.625C103 18.5 103 18.375 103 18.25C102.875 18 102.75 17.75 102.5 17.5C102.25 17.25 102 17.25 101.625 17.25C101.125 17.25 100.75 17.5 100.5 17.875C100.25 18.25 100.125 18.75 100.125 19.375C100.125 20 100.25 20.375 100.5 20.75C100.75 21.125 101.125 21.375 101.625 21.375C102 21.375 102.375 21.25 102.625 20.875C102.875 20.375 103 20 103 19.625Z" fill="white"/>
<path d="M115.125 19.125C115.125 20 114.875 20.75 114.375 21.25C113.875 21.875 113.125 22.125 112.25 22.125C111.375 22.125 110.75 21.875 110.25 21.25C109.75 20.75 109.5 20 109.5 19.125C109.5 18.25 109.75 17.5 110.25 17C110.75 16.375 111.5 16.125 112.375 16.125C113.25 16.125 113.875 16.375 114.375 17C114.875 17.5 115.125 18.25 115.125 19.125ZM113.75 19.125C113.75 18.625 113.625 18.125 113.375 17.75C113.125 17.25 112.75 17.125 112.25 17.125C111.75 17.125 111.375 17.375 111.125 17.75C110.875 18.125 110.75 18.625 110.75 19.125C110.75 19.625 110.875 20.125 111.125 20.5C111.375 21 111.75 21.125 112.25 21.125C112.75 21.125 113.125 20.875 113.375 20.375C113.625 20.125 113.75 19.625 113.75 19.125Z" fill="white"/>
<path d="M122 22H120.75V18.75C120.75 17.75 120.375 17.25 119.625 17.25C119.25 17.25 119 17.375 118.75 17.625C118.5 17.875 118.375 18.25 118.375 18.625V22H117.125V17.875C117.125 17.375 117.125 16.875 117.125 16.25H118.25V17.125C118.375 16.875 118.625 16.625 118.875 16.375C119.25 16.125 119.625 16 120 16C120.5 16 121 16.125 121.375 16.5C121.875 16.875 122 17.5 122 18.375V22Z" fill="white"/>
<path d="M130.5 17.25H129.125V20C129.125 20.75 129.375 21 129.875 21C130.125 21 130.25 21 130.5 21V22C130.25 22.125 129.875 22.125 129.5 22.125C129 22.125 128.625 22 128.375 21.625C128.125 21.375 128 20.75 128 20.125V17.25H127.125V16.25H128V15.25L129.25 14.875V16.25H130.625V17.25H130.5Z" fill="white"/>
<path d="M137.25 22H136V18.75C136 17.75 135.625 17.25 134.875 17.25C134.25 17.25 133.875 17.5 133.625 18.125C133.625 18.25 133.625 18.375 133.625 18.625V22H132.375V13.625H133.625V17.125C134 16.5 134.625 16.125 135.375 16.125C135.875 16.125 136.375 16.25 136.625 16.625C137 17 137.25 17.75 137.25 18.5V22Z" fill="white"/>
<path d="M144.125 18.875C144.125 19.125 144.125 19.25 144.125 19.5H140.375C140.375 20.125 140.625 20.5 140.875 20.75C141.25 21 141.625 21.125 142.125 21.125C142.75 21.125 143.25 21 143.625 20.875L143.875 21.75C143.375 22 142.75 22.125 142 22.125C141.125 22.125 140.375 21.875 139.875 21.375C139.375 20.875 139.125 20.125 139.125 19.25C139.125 18.375 139.375 17.625 139.875 17.125C140.375 16.5 141 16.25 141.875 16.25C142.75 16.25 143.375 16.5 143.75 17.125C144 17.5 144.125 18.125 144.125 18.875ZM143 18.5C143 18.125 142.875 17.75 142.75 17.5C142.5 17.125 142.25 17 141.75 17C141.375 17 141 17.125 140.75 17.5C140.5 17.75 140.375 18.125 140.375 18.5H143Z" fill="white"/>
</svg>
