<svg width="24" height="25" viewBox="0 0 24 25" fill="none" xmlns="http://www.w3.org/2000/svg">
<path d="M9.50507 4.04117C7.84537 2.38211 5.15458 2.38211 3.49487 4.04117C2.5627 4.97298 2.15435 6.23087 2.26879 7.4458C2.2994 10.7084 4.00384 14.4462 7.03041 17.4716C10.057 20.497 13.7962 22.2006 17.0597 22.2312C18.2749 22.3456 19.5331 21.9375 20.4652 21.0057C22.1251 19.3465 22.1251 16.6563 20.4652 14.997C18.8055 13.338 16.1147 13.338 14.455 14.997C14.0629 15.389 13.7631 15.8392 13.5561 16.3199C12.5218 15.6777 11.5102 14.8809 10.5657 13.9368C9.62149 12.9929 8.82444 11.9819 8.18207 10.9482C8.66278 10.7413 9.11305 10.4417 9.50507 10.0498C11.1649 8.39063 11.1649 5.70039 9.50507 4.04117Z" fill="white"/>
</svg>
