<svg width="152" height="38" viewBox="0 0 152 38" fill="none" xmlns="http://www.w3.org/2000/svg">
<path d="M38.655 9.16688C39.131 7.29961 38.0031 5.40005 36.1359 4.92408C34.2686 4.44811 32.369 5.57598 31.8931 7.44324C31.4171 9.3105 32.545 11.2101 34.4122 11.686C36.2795 12.162 38.1791 11.0341 38.655 9.16688Z" fill="#1E1E1E"/>
<path d="M26.9346 6.03709C30.159 2.01361 24.5057 -2.03043 21.5513 1.65531C21.3855 1.82145 2.22738 25.4321 2.09773 25.6288C-1.30656 29.8764 4.10923 34.2172 7.48109 30.0105C7.64671 29.8442 26.805 6.23359 26.9346 6.03709Z" fill="#1E1E1E"/>
<path d="M31.1597 18.8952C34.254 15.0342 28.8384 10.6936 25.7779 14.512C25.6107 14.6792 12.5963 30.7757 12.4656 30.9739C9.35089 35.0079 14.7664 39.3484 17.8474 35.3571C18.0146 35.1899 31.0292 19.0934 31.1597 18.8952Z" fill="#1E1E1E"/>
<path d="M7.25806 11.5634C9.05903 10.8782 9.96351 8.86268 9.27827 7.0617C8.59303 5.26073 6.57755 4.35625 4.77658 5.04149C2.9756 5.72673 2.07112 7.7422 2.75636 9.54318C3.44161 11.3442 5.45708 12.2486 7.25806 11.5634Z" fill="#1E1E1E"/>
<g clip-path="url(#clip0_90_6724)">
<path d="M55.3965 28.1631L50.2164 10.75H52.0404L55.5668 22.7154C55.81 23.5666 56.0288 24.4421 56.2477 25.5852C56.5396 24.3205 56.7828 23.5666 57.0503 22.7154L60.8442 10.75H62.6682L66.4621 22.7154C66.7296 23.5909 66.9728 24.4664 67.2404 25.5852C67.5079 24.2476 67.7268 23.3964 67.9213 22.7397L71.5207 10.75H73.296L68.0672 28.1631H66.4135L61.744 13.3765L57.0746 28.1631H55.3965ZM74.0787 28.1631H72.3033L78.6995 10.75H80.8639L87.333 28.1631H85.5091L83.8066 23.5423H75.7811L74.0787 28.1631ZM79.5506 13.2063L76.3161 22.0101H83.2473L79.9884 13.2063C79.9155 12.9631 79.7939 12.6712 79.7695 12.501C79.7452 12.6469 79.6479 12.9631 79.5506 13.2063ZM92.1283 20.8914L86.2185 10.75H88.1884L92.4931 18.2648C92.6876 18.6296 92.8336 18.9215 93.0038 19.3106C93.2227 18.8728 93.2227 18.8728 93.5388 18.2648L97.7948 10.75H99.7161L93.8793 20.8914V28.1631H92.1283V20.8914ZM105.047 10.3852V25.2933H112.489V28.1631H101.934V10.3852H105.047ZM118.133 10.3852V28.1631H115.02V10.3852H118.133ZM125.138 28.1631H122.074V10.3852H125.163L133.504 22.9829V10.3852H136.569V28.1631H133.504L125.138 15.5653V28.1631ZM151.545 28.1631H140.504V10.3852H151.545V13.2549H143.617V17.8271H150.718V20.5752H143.617V25.2933H151.545V28.1631Z" fill="#1E1E1E"/>
</g>
<defs>
<clipPath id="clip0_90_6724">
<rect width="101.84" height="38" fill="white" transform="translate(50.1562)"/>
</clipPath>
</defs>
</svg>
