<svg width="146" height="38" viewBox="0 0 146 38" fill="none" xmlns="http://www.w3.org/2000/svg">
<path d="M6.46808 27.0886C6.46808 31.2569 4.55511e-08 31.2569 -1.36653e-07 27.0886L-1.00251e-06 3.48007C-1.18472e-06 -0.688286 6.46808 -0.688286 6.46808 3.48007L6.46808 27.0886Z" fill="white"/>
<path d="M16.9837 34.7663C16.9837 38.9347 10.5156 38.9347 10.5156 34.7663L10.5156 11.1578C10.5156 6.98945 16.9837 6.98945 16.9837 11.1578L16.9837 34.7663Z" fill="white"/>
<path d="M27.4915 27.0886C27.4915 31.2569 21.0234 31.2569 21.0234 27.0886L21.0234 3.48007C21.0234 -0.688286 27.4915 -0.688286 27.4915 3.48007L27.4915 27.0886Z" fill="white"/>
<path d="M38.0071 34.7663C38.0071 38.9347 31.5391 38.9347 31.5391 34.7663L31.5391 11.9178C31.5391 7.74945 38.0071 7.74945 38.0071 11.9178L38.0071 34.7663Z" fill="white"/>
<g clip-path="url(#clip0_90_5894)">
<path d="M61.0169 24.0693V27.3799H49.5554V9.82388H61.0169V13.1344H53.4428V17.0218H60.0137V20.1819H53.4428V24.0693H61.0169ZM67.6949 27.3799H63.9078V14.3132H67.0929L67.3939 16.0939C68.6228 14.7646 70.0775 14.0875 71.8581 14.0875C73.4633 14.0875 74.5417 14.564 75.2189 15.4669C75.4195 15.7177 75.57 15.9685 75.6954 16.2694C76.9745 14.7897 78.4291 14.0875 80.2349 14.0875C81.8901 14.0875 82.9937 14.564 83.6708 15.4669C84.3731 16.3948 84.5737 17.4733 84.5737 20.1318V27.3799H80.8117V20.9845C80.8117 19.4797 80.7114 18.8276 80.3101 18.3009C79.8837 17.7993 79.3069 17.5987 78.404 17.5987C77.5764 17.5987 76.8491 17.8495 76.0967 18.4765C76.1468 18.953 76.1468 19.4797 76.1468 20.1318V27.3799H72.3597V20.9845C72.3597 19.4797 72.2845 18.8276 71.8581 18.3009C71.4569 17.7993 70.88 17.5987 70.0273 17.5987C69.0993 17.5987 68.2466 17.9247 67.6949 18.5016V27.3799ZM93.8535 27.5805C92.8754 27.5805 91.822 27.405 90.8188 27.0288L87.9346 27.3799V8.31908H91.7217V16.0186C92.6497 14.7396 93.9037 14.0624 95.6091 14.0624C98.5184 14.0624 100.475 16.2444 100.475 20.3324C100.475 24.9973 97.8161 27.5805 93.8535 27.5805ZM91.7217 19.1286V24.1947C92.2985 24.4455 92.8503 24.5458 93.4271 24.5458C95.258 24.5458 96.5371 23.342 96.5371 20.7086C96.5371 18.5016 95.584 17.4231 94.2046 17.4231C93.1011 17.4231 92.2985 18.025 91.7217 19.1286ZM106.662 27.3799H102.875V8.31908H106.662V27.3799ZM116.221 27.5805C111.456 27.5805 109.074 25.3735 109.074 20.8089C109.074 16.445 112.033 14.0624 115.419 14.0624C119.005 14.0624 120.736 16.2193 120.736 19.9813C120.736 20.6835 120.686 21.3105 120.635 21.9375H112.936C113.312 23.8938 114.641 24.5709 117.074 24.5709C118.077 24.5709 119.106 24.4706 119.983 24.3452L119.808 27.3297C118.905 27.4802 117.676 27.5805 116.221 27.5805ZM115.318 16.8714C114.014 16.8714 113.061 17.7993 112.861 19.881L117.149 19.6552C117.149 17.7492 116.572 16.8714 115.318 16.8714ZM127.064 27.3799H123.277V14.3132H126.462L126.763 16.0939C127.992 14.7646 129.447 14.0875 131.227 14.0875C132.832 14.0875 133.911 14.564 134.588 15.4669C134.789 15.7177 134.939 15.9685 135.064 16.2694C136.344 14.7897 137.798 14.0875 139.604 14.0875C141.259 14.0875 142.363 14.564 143.04 15.4669C143.742 16.3948 143.943 17.4733 143.943 20.1318V27.3799H140.181V20.9845C140.181 19.4797 140.08 18.8276 139.679 18.3009C139.253 17.7993 138.676 17.5987 137.773 17.5987C136.945 17.5987 136.218 17.8495 135.466 18.4765C135.516 18.953 135.516 19.4797 135.516 20.1318V27.3799H131.729V20.9845C131.729 19.4797 131.654 18.8276 131.227 18.3009C130.826 17.7993 130.249 17.5987 129.396 17.5987C128.468 17.5987 127.616 17.9247 127.064 18.5016V27.3799Z" fill="white"/>
</g>
<defs>
<clipPath id="clip0_90_5894">
<rect width="96.52" height="38" fill="white" transform="translate(49.3984)"/>
</clipPath>
</defs>
</svg>
