<svg width="141" height="38" viewBox="0 0 141 38" fill="none" xmlns="http://www.w3.org/2000/svg">
<path fill-rule="evenodd" clip-rule="evenodd" d="M15.6827 0C12.1404 0 8.92002 1.28814 6.34375 3.22034L23.8946 24.3136L38.2251 13.5254C37.581 5.95763 31.1404 0 23.2505 0" fill="#1E1E1E"/>
<path fill-rule="evenodd" clip-rule="evenodd" d="M23.252 37.9994C32.1385 37.9994 38.3876 30.5989 38.3876 22.0587L25.3452 31.7198C23.8961 32.8469 21.8028 32.5248 20.6757 31.2367L1.99775 8.69434C-0.182731 13.0553 0.387585 17.9786 0.387585 22.7028C0.387585 31.0757 7.1503 37.8384 15.5232 37.8384" fill="#1E1E1E"/>
<g clip-path="url(#clip0_90_6712)">
<path d="M56.9593 11.78L57.2891 12.0627C57.4305 13.6648 57.4776 15.3375 57.4776 16.9396C57.4776 20.1909 57.0535 23.5129 56.7472 25.7039L57.3362 25.7275C59.6451 23.4186 61.7891 19.7197 61.7891 17.0103C61.7891 14.8428 60.8938 13.4056 60.0221 12.4868L60.0692 12.1805C61.5063 11.8978 63.0849 11.8035 64.2393 11.78C64.7341 12.1569 65.0403 12.6753 65.0403 13.6412C65.0403 14.3009 64.8754 15.1019 64.5456 16.1621C63.5796 19.2956 57.831 26.8113 55.0509 28.5547C53.8493 28.4605 52.6949 28.0835 51.8232 27.5887C52.0823 24.5966 52.2708 21.4867 52.2708 18.5888C52.2708 16.9161 52.1766 15.3847 52.0588 14.1124L49.9384 12.4397L49.9855 12.1334C51.6347 11.9685 55.3101 11.78 56.9593 11.78ZM69.3209 13.759C68.4021 13.759 67.7188 13.17 67.7188 12.3454C67.7188 11.0967 68.9439 10.3428 69.957 10.3428C70.8759 10.3428 71.5355 10.9318 71.5355 11.7329C71.5355 13.0051 70.334 13.759 69.3209 13.759ZM72.9963 25.5155C71.8654 26.7877 69.5565 28.5547 67.5775 28.5547C65.9047 28.5547 64.6089 27.683 64.6089 25.916C64.6089 25.0678 64.9387 23.9369 65.3628 22.594C65.7869 21.2747 66.2345 19.7904 66.5408 18.0705L65.6455 16.7276L65.7162 16.3742C67.8366 16.1386 69.6272 16.0443 71.3706 16.0208L71.7005 16.2564C71.7005 17.1988 71.4177 19.2014 70.8523 21.204C70.2397 23.3715 69.2267 25.7511 69.2267 26.9526C69.2267 27.1647 69.2502 27.4238 69.3209 27.5181C70.4047 27.0469 72.0539 25.8689 72.9256 24.9029L72.9963 24.9736V25.5155ZM82.7891 24.8087C82.7891 27.4945 80.0326 28.5547 77.7473 28.5547C75.2499 28.5547 72.6583 27.7772 71.7866 26.5757C72.2342 25.4919 72.9882 24.5259 73.7656 23.7249H74.0012C74.5431 25.1149 75.886 27.9893 77.4174 27.9893C78.1242 27.9893 78.7604 27.5652 78.7604 26.6935C78.7604 25.4683 77.8886 25.0678 76.7578 24.361C74.8965 23.2066 73.695 22.382 73.695 20.6857C73.695 17.2695 77.7944 16.0208 80.5038 16.0208C83.0247 16.0208 84.6975 16.9396 84.6975 18.4239C84.6975 19.3427 84.1556 19.9082 83.3781 20.3087C82.2001 20.4501 81.0457 20.4736 79.8677 20.4736L79.797 20.238C80.3624 19.6019 80.9279 18.9893 80.9279 18.3768C80.9279 17.6935 80.2211 16.7747 79.2787 16.7747C78.5483 16.7747 77.818 17.2695 77.818 18.4946C77.818 19.7197 78.5954 20.4265 79.7263 21.1333C81.5876 22.2877 82.7891 23.1123 82.7891 24.8087ZM101.864 25.5155C100.733 26.7877 97.9529 28.5547 95.9739 28.5547C94.3011 28.5547 93.3823 27.683 93.3823 26.1516C93.3823 24.8793 94.0655 22.7589 95.055 20.8035L94.6781 20.6857C94.6074 20.827 94.2304 21.6752 94.1362 21.8637C92.6284 25.1385 91.0498 28.5547 87.775 28.5547C85.9138 28.5547 84.9478 27.4474 84.9478 25.916C84.9478 25.0914 85.5368 23.56 86.1022 21.9815C86.6912 20.4029 87.2802 18.8009 87.2802 17.8113C87.2802 17.4579 87.1389 17.3637 86.9268 17.3637C86.5499 17.3637 85.9844 17.5757 85.5132 17.8585L85.4426 17.8113L85.5368 17.1988C86.597 16.6333 88.0577 16.0208 89.3535 16.0208C91.1441 16.0208 91.9451 16.9396 91.9451 18.471C91.9451 19.3192 91.4504 20.9213 90.9556 22.4291C90.4608 23.9605 89.9661 25.3977 89.9661 25.9395C89.9661 26.3636 90.2017 26.505 90.4608 26.505C90.9792 26.505 91.7331 25.5155 92.6048 23.8191C93.5708 21.9579 94.7252 19.2485 95.9739 16.0208C97.6466 16.1386 99.555 16.9632 100.238 17.6229C100.238 19.2721 97.6466 24.7851 97.6466 27.1647C97.6466 27.306 97.6702 27.4474 97.7173 27.5181C99.6728 26.717 100.969 25.7275 101.793 24.8558L101.864 24.9265V25.5155ZM117.503 25.2799C116.372 26.5521 113.356 28.5547 111.377 28.5547C109.704 28.5547 108.785 27.683 108.785 26.1516C108.785 25.2799 109.115 24.4788 110.317 22.3584L109.516 22.4291C108.573 24.6909 106.924 28.5547 104.309 28.5547C102.424 28.5547 101.081 26.6699 101.081 24.0312C101.081 19.2956 103.673 16.0208 107.419 16.0208C108.668 16.0208 109.634 16.5391 110.246 17.5993L110.01 18.1883C109.492 17.5051 108.903 16.7747 108.149 16.7747C107.089 16.7747 106.17 20.026 106.17 23.7013C106.17 25.1856 106.406 26.0102 106.853 26.0102C107.23 26.0102 107.654 25.2327 108.526 23.1595C109.186 21.6281 110.081 19.4134 111.165 16.2799C112.885 16.5155 114.77 17.4579 115.571 18.3532C115.571 19.1778 114.935 21.0391 114.298 22.8532C113.686 24.6673 113.05 26.4579 113.05 27.1647C113.05 27.306 113.073 27.4474 113.12 27.5181C115.076 26.717 116.607 25.4919 117.432 24.6202L117.503 24.6909V25.2799ZM119.389 28.5547C117.552 28.5547 116.421 27.5416 116.421 25.916C116.421 24.9971 116.633 24.0312 117.128 22.5233L119.177 16.2799C119.719 14.6307 119.955 13.6648 120.073 12.7459L119.224 11.2145L119.295 10.8611C121.156 10.6491 122.994 10.5313 124.95 10.5077L125.256 10.7198C125.256 11.5915 124.808 14.4423 123.56 18.3768C122.876 20.5207 121.062 25.2327 121.062 26.9526C121.062 27.1647 121.109 27.4238 121.133 27.5181C122.382 26.9997 124.361 25.7039 125.162 24.8087L125.232 24.8793V25.4212C123.748 27.094 120.991 28.5547 119.389 28.5547ZM136.084 27.895C134.576 31.5704 131.066 34.0677 127.296 34.0677C125.105 34.0677 122.702 33.3609 122.443 31.2405C123.15 29.8505 124.846 28.2955 126.236 27.683C125.105 27.3296 124.54 26.3872 124.54 25.2092C124.54 24.361 125.152 22.9945 125.789 21.6045C126.401 20.1909 127.014 18.7537 127.014 17.7878C127.014 17.4344 126.872 17.3401 126.66 17.3401C126.425 17.3401 125.906 17.4815 125.694 17.6229L125.624 17.5757L125.718 17.0339C126.448 16.5391 127.791 16.0208 129.087 16.0208C130.877 16.0208 131.679 16.9161 131.679 18.4475C131.679 19.2956 131.137 20.7328 130.618 22.0993C130.076 23.4422 129.558 24.6909 129.558 25.2327C129.558 25.6568 129.794 25.7982 130.053 25.7982C130.43 25.7982 130.995 25.1856 131.702 24.0076C132.644 22.382 133.822 19.7433 135 16.2564C136.438 16.492 138.582 17.293 139.406 18.3532C139.123 19.06 137.074 25.5155 136.084 27.895ZM126.519 29.1908C126.519 31.1463 127.603 33.196 129.417 33.196C130.053 33.196 130.76 31.3112 131.49 29.0023C132.197 26.717 132.927 24.0312 133.634 22.3349L133.163 22.4291C132.833 23.0888 132.48 23.7249 132.103 24.3375C130.901 26.2694 129.393 27.8479 127.367 27.8479C127.131 27.8479 126.919 27.8243 126.707 27.8008C126.59 28.2484 126.519 28.7196 126.519 29.1908Z" fill="#1E1E1E"/>
</g>
<defs>
<clipPath id="clip0_90_6712">
<rect width="91.2" height="38" fill="white" transform="translate(49.7812)"/>
</clipPath>
</defs>
</svg>
