<svg width="147" height="38" viewBox="0 0 147 38" fill="none" xmlns="http://www.w3.org/2000/svg">
<path fill-rule="evenodd" clip-rule="evenodd" d="M28.1343 38L38.2578 0L0.257812 10.1236L8.76683 18.6326L30.1867 8.06934L19.4768 29.3425L28.1343 38Z" fill="white"/>
<path fill-rule="evenodd" clip-rule="evenodd" d="M30.1865 8.06714L19.476 29.3413H8.76562V18.6308L30.1865 8.06714Z" fill="white" fill-opacity="0.5"/>
<g clip-path="url(#clip0_90_5909)">
<path d="M58.2616 27.7977C57.0781 27.7977 55.9756 27.5869 54.9541 27.1654C53.9489 26.7276 53.0653 26.1277 52.3032 25.3657C51.5412 24.6037 50.9413 23.7119 50.5036 22.6905C50.082 21.6528 49.8712 20.5341 49.8712 19.3343C49.8712 18.1508 50.082 17.0564 50.5036 16.0511C50.9413 15.0297 51.5412 14.138 52.3032 13.3759C53.0653 12.6139 53.9489 12.0221 54.9541 11.6006C55.9756 11.1628 57.0781 10.9439 58.2616 10.9439C59.4452 10.9439 60.5396 11.1628 61.5448 11.6006C62.5501 12.0221 63.4337 12.6139 64.1957 13.3759C64.9577 14.138 65.5495 15.0297 65.9711 16.0511C66.3926 17.0564 66.6034 18.1508 66.6034 19.3343C66.6034 20.5341 66.3926 21.6528 65.9711 22.6905C65.5495 23.7119 64.9577 24.6037 64.1957 25.3657C63.4337 26.1277 62.5501 26.7276 61.5448 27.1654C60.5396 27.5869 59.4452 27.7977 58.2616 27.7977ZM58.2616 25.4387C59.0561 25.4387 59.8019 25.2846 60.4991 24.9766C61.2125 24.6523 61.8367 24.2146 62.3717 23.6633C62.9068 23.112 63.3202 22.4716 63.612 21.742C63.9039 20.9962 64.0498 20.1936 64.0498 19.3343C64.0498 18.4912 63.9039 17.7049 63.612 16.9753C63.3202 16.2457 62.9068 15.6053 62.3717 15.054C61.8367 14.5028 61.2206 14.0731 60.5234 13.7651C59.8262 13.457 59.0723 13.303 58.2616 13.303C57.451 13.303 56.6889 13.457 55.9756 13.7651C55.2622 14.0731 54.638 14.5028 54.1029 15.054C53.5841 15.6053 53.1707 16.2457 52.8626 16.9753C52.5708 17.7049 52.4248 18.4912 52.4248 19.3343C52.4248 20.1936 52.5708 20.9962 52.8626 21.742C53.1707 22.4716 53.5841 23.112 54.1029 23.6633C54.638 24.2146 55.2622 24.6523 55.9756 24.9766C56.6889 25.2846 57.451 25.4387 58.2616 25.4387ZM71.7241 32.9779H69.3164V21.5231C69.3164 20.3396 69.592 19.2776 70.1433 18.3372C70.7108 17.3968 71.4728 16.6591 72.4294 16.1241C73.386 15.5728 74.4641 15.2972 75.6639 15.2972C76.8637 15.2972 77.9419 15.581 78.8985 16.1484C79.8551 16.6997 80.609 17.4536 81.1602 18.4102C81.7115 19.3506 81.9871 20.3882 81.9871 21.5231C81.9871 22.7229 81.7196 23.8011 81.1846 24.7577C80.6495 25.6981 79.9118 26.4439 78.9714 26.9951C78.0473 27.5302 76.9772 27.7977 75.7612 27.7977C74.8046 27.7977 73.921 27.5707 73.1103 27.1167C72.3159 26.6628 71.6754 26.071 71.189 25.3414C70.7189 24.5956 70.4838 23.7849 70.4838 22.9094L71.7241 23.5417V32.9779ZM75.6639 25.5359C76.4097 25.5359 77.0745 25.3576 77.6582 25.0009C78.2581 24.628 78.7282 24.1416 79.0687 23.5417C79.4092 22.9256 79.5794 22.2608 79.5794 21.5475C79.5794 20.8179 79.4092 20.1531 79.0687 19.5532C78.7282 18.9533 78.2581 18.475 77.6582 18.1183C77.0745 17.7616 76.4097 17.5833 75.6639 17.5833C74.9181 17.5833 74.2453 17.7616 73.6454 18.1183C73.0617 18.475 72.5915 18.9533 72.2348 19.5532C71.8943 20.1531 71.7241 20.8179 71.7241 21.5475C71.7241 22.2608 71.8943 22.9256 72.2348 23.5417C72.5915 24.1416 73.0617 24.628 73.6454 25.0009C74.2453 25.3576 74.9181 25.5359 75.6639 25.5359ZM90.1298 27.822C89.157 27.822 88.3301 27.6275 87.6491 27.2383C86.9682 26.8492 86.4493 26.3142 86.0926 25.6332C85.7522 24.936 85.5819 24.1335 85.5819 23.2255V12.5004H87.9896V23.1526C87.9896 23.9308 88.2004 24.5388 88.6219 24.9766C89.0597 25.4143 89.6353 25.6332 90.3486 25.6332C90.7378 25.6332 91.1269 25.5684 91.516 25.4387C91.9213 25.309 92.2699 25.1387 92.5618 24.9279V27.1411C92.2537 27.3356 91.8808 27.4978 91.443 27.6275C91.0053 27.7572 90.5675 27.822 90.1298 27.822ZM92.5618 17.6806H83.2229V15.5891H92.5618V17.6806ZM96.1416 15.5891H98.5492V27.5059H96.1416V15.5891ZM97.3332 13.23C97.0576 13.23 96.7982 13.1652 96.555 13.0355C96.3118 12.8895 96.1172 12.695 95.9713 12.4518C95.8254 12.2086 95.7524 11.9411 95.7524 11.6492C95.7524 11.3574 95.8254 11.0899 95.9713 10.8467C96.1172 10.6035 96.3118 10.4089 96.555 10.263C96.7982 10.1171 97.0576 10.0441 97.3332 10.0441C97.6251 10.0441 97.8845 10.1171 98.1115 10.263C98.3547 10.4089 98.5411 10.6035 98.6708 10.8467C98.8168 11.0899 98.8897 11.3574 98.8897 11.6492C98.8897 11.9411 98.8168 12.2086 98.6708 12.4518C98.5411 12.695 98.3547 12.8895 98.1115 13.0355C97.8845 13.1652 97.6251 13.23 97.3332 13.23ZM117.258 15.2486C118.458 15.2486 119.463 15.5161 120.274 16.0511C121.101 16.5862 121.725 17.3077 122.146 18.2156C122.584 19.1236 122.803 20.1288 122.803 21.2313V27.5059H120.395V21.6204C120.395 20.8908 120.274 20.218 120.03 19.6019C119.803 18.9858 119.439 18.4912 118.936 18.1183C118.45 17.7454 117.834 17.559 117.088 17.559C116.374 17.559 115.774 17.7454 115.288 18.1183C114.802 18.475 114.437 18.9614 114.194 19.5775C113.95 20.1774 113.829 20.8422 113.829 21.5718V27.5059H111.421V21.5718C111.421 20.8422 111.3 20.1774 111.056 19.5775C110.829 18.9614 110.465 18.475 109.962 18.1183C109.476 17.7454 108.859 17.559 108.114 17.559C107.368 17.559 106.752 17.7454 106.265 18.1183C105.795 18.4912 105.447 18.9858 105.22 19.6019C104.993 20.218 104.879 20.8908 104.879 21.6204V27.5059H102.471V21.2556C102.471 20.1369 102.674 19.1236 103.079 18.2156C103.501 17.3077 104.117 16.5862 104.928 16.0511C105.755 15.5161 106.76 15.2486 107.943 15.2486C108.949 15.2486 109.816 15.4431 110.546 15.8323C111.291 16.2214 111.867 16.7564 112.272 17.4374C112.694 18.1183 112.913 18.9047 112.929 19.7964H112.394C112.426 18.9047 112.645 18.1183 113.051 17.4374C113.472 16.7564 114.04 16.2214 114.753 15.8323C115.483 15.4431 116.318 15.2486 117.258 15.2486ZM131.474 27.7977C130.323 27.7977 129.293 27.514 128.385 26.9465C127.494 26.379 126.788 25.6251 126.269 24.6847C125.751 23.7282 125.491 22.6743 125.491 21.5231C125.491 20.3882 125.767 19.3506 126.318 18.4102C126.886 17.4536 127.648 16.6997 128.604 16.1484C129.561 15.581 130.639 15.2972 131.839 15.2972C133.039 15.2972 134.117 15.5728 135.073 16.1241C136.03 16.6591 136.784 17.3968 137.335 18.3372C137.903 19.2776 138.186 20.3396 138.186 21.5231V27.5059H135.9V23.0553L136.727 22.423C136.727 23.4282 136.5 24.3362 136.046 25.1468C135.608 25.9575 134.992 26.606 134.198 27.0924C133.42 27.5626 132.512 27.7977 131.474 27.7977ZM131.839 25.5116C132.585 25.5116 133.257 25.3333 133.857 24.9766C134.457 24.6199 134.927 24.1416 135.268 23.5417C135.608 22.9256 135.779 22.2608 135.779 21.5475C135.779 20.8179 135.608 20.1531 135.268 19.5532C134.927 18.9533 134.457 18.475 133.857 18.1183C133.257 17.7454 132.585 17.559 131.839 17.559C131.093 17.559 130.42 17.7454 129.82 18.1183C129.237 18.475 128.766 18.9533 128.41 19.5532C128.069 20.1531 127.899 20.8179 127.899 21.5475C127.899 22.2608 128.069 22.9256 128.41 23.5417C128.766 24.1416 129.237 24.6199 129.82 24.9766C130.42 25.3333 131.093 25.5116 131.839 25.5116ZM142.122 10.1171H144.529V27.5059H142.122V10.1171Z" fill="white"/>
</g>
<defs>
<clipPath id="clip0_90_5909">
<rect width="96.52" height="38" fill="white" transform="translate(49.6562)"/>
</clipPath>
</defs>
</svg>
