<svg width="147" height="38" viewBox="0 0 147 38" fill="none" xmlns="http://www.w3.org/2000/svg">
<path fill-rule="evenodd" clip-rule="evenodd" d="M0.265741 21.4775C0.125 21.4775 0.125 21.4775 0.125 21.4775C3.10786 42.689 34.8433 42.4803 38.125 21.4775C37.9843 21.4775 37.9843 21.4775 37.9843 21.4775C36.5768 21.4775 35.3102 21.6183 33.9028 21.8998C30.4625 37.2244 7.6065 37.3517 4.48796 21.759C3.08055 21.6183 1.67315 21.4775 0.265741 21.4775Z" fill="#1E1E1E"/>
<path fill-rule="evenodd" clip-rule="evenodd" d="M0.125 15.9888H0.265741C1.67315 15.9888 2.93981 15.8481 4.34722 15.5666C7.75818 0.372358 30.4542 0.047958 33.6213 15.5666C34.888 15.8481 36.2954 15.9888 37.7028 15.9888H37.8435C35.1757 -5.3534 3.09278 -5.11539 0.125 15.9888Z" fill="#1E1E1E"/>
<path fill-rule="evenodd" clip-rule="evenodd" d="M34.7523 18.6618C28.5597 17.8174 22.93 14.5803 19.13 9.51367C15.33 14.5803 9.7004 17.8174 3.50781 18.6618C9.7004 19.5063 15.4708 22.884 19.13 27.9507C22.93 22.884 28.5597 19.5063 34.7523 18.6618Z" fill="#1E1E1E"/>
<g clip-path="url(#clip0_90_6697)">
<path d="M53.5254 28.459V12.5446H57.2874V28.459H53.5254ZM49.8774 12.5446H60.9354V15.6226H49.8774V12.5446ZM49.8774 25.381H60.9354V28.459H49.8774V25.381ZM70.4291 28.7326C69.0915 28.7326 67.9363 28.4666 66.9635 27.9346C66.0059 27.4026 65.2687 26.6426 64.7519 25.6546C64.2503 24.6666 63.9995 23.4886 63.9995 22.1206C63.9995 20.7222 64.2655 19.529 64.7975 18.541C65.3447 17.553 66.1047 16.8006 67.0775 16.2838C68.0503 15.767 69.1979 15.5086 70.5203 15.5086C71.6755 15.5086 72.6939 15.7138 73.5755 16.1242C74.4723 16.5346 75.1791 17.1122 75.6959 17.857C76.2279 18.5866 76.5167 19.4606 76.5623 20.479H73.0055C72.8839 19.7798 72.6103 19.263 72.1847 18.9286C71.7743 18.579 71.2195 18.4042 70.5203 18.4042C69.9427 18.4042 69.4259 18.5486 68.9699 18.8374C68.5291 19.1262 68.1795 19.5442 67.9211 20.0914C67.6779 20.6386 67.5563 21.315 67.5563 22.1206C67.5563 23.3214 67.8299 24.2486 68.3771 24.9022C68.9395 25.5558 69.6235 25.8826 70.4291 25.8826C70.9003 25.8826 71.3107 25.799 71.6603 25.6318C72.0251 25.4646 72.3291 25.229 72.5723 24.925C72.8155 24.6058 72.9827 24.2486 73.0739 23.8534H76.6307C76.5395 24.8414 76.2203 25.7002 75.6731 26.4298C75.1259 27.1594 74.4039 27.7294 73.5071 28.1398C72.6103 28.535 71.5843 28.7326 70.4291 28.7326ZM85.0756 28.7326C83.7228 28.7326 82.56 28.4666 81.5872 27.9346C80.6144 27.4026 79.862 26.6426 79.33 25.6546C78.8132 24.6666 78.5548 23.4886 78.5548 22.1206C78.5548 20.7374 78.8132 19.5594 79.33 18.5866C79.862 17.5986 80.6144 16.8386 81.5872 16.3066C82.56 15.7746 83.7228 15.5086 85.0756 15.5086C87.1124 15.5086 88.7008 16.0938 89.8408 17.2642C90.996 18.4346 91.5736 20.0534 91.5736 22.1206C91.5736 23.4886 91.3152 24.6666 90.7984 25.6546C90.2816 26.6426 89.5368 27.4026 88.564 27.9346C87.5912 28.4666 86.4284 28.7326 85.0756 28.7326ZM85.0756 25.8598C85.9876 25.8598 86.702 25.5254 87.2188 24.8566C87.7508 24.1878 88.0168 23.2758 88.0168 22.1206C88.0168 20.9502 87.7508 20.0382 87.2188 19.3846C86.702 18.7158 85.9876 18.3814 85.0756 18.3814C84.1484 18.3814 83.4188 18.7158 82.8868 19.3846C82.37 20.0382 82.1116 20.9502 82.1116 22.1206C82.1116 23.2758 82.37 24.1878 82.8868 24.8566C83.4188 25.5254 84.1484 25.8598 85.0756 25.8598ZM102.39 28.459V20.6386C102.39 19.985 102.223 19.4606 101.888 19.0654C101.554 18.6702 101.113 18.4726 100.566 18.4726C99.9425 18.4726 99.3649 18.6854 98.8329 19.111C98.3161 19.5214 97.7689 20.2358 97.1913 21.2542L96.6897 18.2446C97.2673 17.2566 97.9665 16.5574 98.7873 16.147C99.6081 15.7214 100.444 15.5086 101.295 15.5086C102.268 15.5086 103.097 15.7138 103.781 16.1242C104.48 16.5346 105.012 17.1046 105.377 17.8342C105.757 18.5638 105.947 19.4226 105.947 20.4106V28.459H102.39ZM93.9309 28.459V15.7822H97.3737L97.4877 18.0394V28.459H93.9309ZM112.955 28.459V15.7822H116.512V28.459H112.955ZM108.851 28.459V25.5862H120.661V28.459H108.851ZM110.447 18.655V15.7822H114.733V18.655H110.447ZM112.818 14.095V10.7662H116.603V14.095H112.818ZM129.745 28.7326C128.407 28.7326 127.252 28.4666 126.279 27.9346C125.322 27.4026 124.584 26.6426 124.068 25.6546C123.566 24.6666 123.315 23.4886 123.315 22.1206C123.315 20.7222 123.581 19.529 124.113 18.541C124.66 17.553 125.42 16.8006 126.393 16.2838C127.366 15.767 128.514 15.5086 129.836 15.5086C130.991 15.5086 132.01 15.7138 132.891 16.1242C133.788 16.5346 134.495 17.1122 135.012 17.857C135.544 18.5866 135.832 19.4606 135.878 20.479H132.321C132.2 19.7798 131.926 19.263 131.5 18.9286C131.09 18.579 130.535 18.4042 129.836 18.4042C129.258 18.4042 128.742 18.5486 128.286 18.8374C127.845 19.1262 127.495 19.5442 127.237 20.0914C126.994 20.6386 126.872 21.315 126.872 22.1206C126.872 23.3214 127.146 24.2486 127.693 24.9022C128.255 25.5558 128.939 25.8826 129.745 25.8826C130.216 25.8826 130.626 25.799 130.976 25.6318C131.341 25.4646 131.645 25.229 131.888 24.925C132.131 24.6058 132.298 24.2486 132.39 23.8534H135.946C135.855 24.8414 135.536 25.7002 134.989 26.4298C134.442 27.1594 133.72 27.7294 132.823 28.1398C131.926 28.535 130.9 28.7326 129.745 28.7326Z" fill="#1E1E1E"/>
</g>
<defs>
<clipPath id="clip0_90_6697">
<rect width="96.52" height="38" fill="white" transform="translate(49.5234)"/>
</clipPath>
</defs>
</svg>
