<svg width="180" height="38" viewBox="0 0 180 38" fill="none" xmlns="http://www.w3.org/2000/svg">
<path fill-rule="evenodd" clip-rule="evenodd" d="M10.6941 23.75V4.75L2.47656 9.5V28.5L18.8987 38L27.1162 33.25L10.6941 23.75Z" fill="#1E1E1E"/>
<path fill-rule="evenodd" clip-rule="evenodd" d="M18.8984 19L35.3205 28.5V19L27.116 14.25V4.75L18.8984 0V19Z" fill="#1E1E1E"/>
<g clip-path="url(#clip0_90_6718)">
<path d="M53.9941 25.0132H70.9801V27.4072H51.2125V11.8576H53.9941V25.0132ZM72.5991 21.6844C72.5991 17.5348 75.6999 15.688 82.3347 15.688C88.9923 15.688 92.0703 17.5348 92.0703 21.6844C92.0703 25.834 88.9923 27.6808 82.3347 27.6808C75.6999 27.6808 72.5991 25.834 72.5991 21.6844ZM75.1983 21.6844C75.1983 24.3748 77.0223 25.4464 82.3347 25.4464C87.6471 25.4464 89.4711 24.3748 89.4711 21.6844C89.4711 19.0168 87.6471 17.9224 82.3347 17.9224C77.0223 17.9224 75.1983 19.0168 75.1983 21.6844ZM112.227 16.5544V25.6288C112.227 30.1432 109.422 31.8076 102.902 31.8076C100.462 31.8076 97.2472 31.4428 94.8988 30.7588L95.4916 28.7296C97.726 29.3224 100.302 29.7328 103.038 29.7328C108.191 29.7328 109.81 28.5472 109.719 25.6516L109.673 25.1044C107.302 26.0848 104.429 26.8372 101.442 26.8372C96.7912 26.8372 94.3972 25.2184 94.3972 21.3652C94.3972 17.1472 97.8172 15.7564 103.061 15.7564C106.595 15.7564 109.833 16.1668 112.227 16.5544ZM96.9964 21.3424C96.9964 23.782 98.41 24.7852 101.648 24.7852C104.27 24.7852 106.983 24.238 109.605 23.3488V18.3784C107.576 18.1048 104.954 17.8996 102.719 17.8996C99.1396 17.8996 96.9964 18.7888 96.9964 21.3424ZM117.848 11.2648V14.3428H115.248V11.2648H117.848ZM115.248 27.4072V15.9844H117.848V27.4072H115.248ZM138.364 16.5544V31.5112H135.765V25.5376C133.348 26.6548 130.43 27.6352 127.398 27.6352C123.066 27.6352 120.626 25.9024 120.626 21.7984C120.626 17.2384 124.023 15.7564 129.13 15.7564C132.664 15.7564 135.97 16.144 138.364 16.5544ZM123.225 21.6844C123.225 24.3748 124.639 25.4464 127.876 25.4464C130.498 25.4464 133.143 24.694 135.765 23.7136V18.3784C133.736 18.1048 131.091 17.8996 128.857 17.8996C125.277 17.8996 123.225 18.9028 123.225 21.6844ZM141.183 22.2088V15.9844H143.782V21.8668C143.782 24.1696 145.196 25.4692 148.662 25.4692C150.577 25.4692 153.199 24.922 156.003 23.9872V15.9844H158.602V27.4072H156.345L156.117 25.7656C153.678 26.7916 150.736 27.6808 147.841 27.6808C143.646 27.6808 141.183 26.1304 141.183 22.2088ZM170.791 25.5832C174.12 25.5832 176.924 25.0816 178.087 24.8308L178.634 26.7916C176.696 27.2932 173.504 27.6808 170.586 27.6808C164.338 27.6808 161.283 26.1076 161.283 21.6844C161.283 17.3524 164.589 15.7108 170.221 15.7108C175.396 15.7108 179.044 17.0332 179.044 21.0916C179.044 21.4792 178.999 22.1176 178.953 22.3684H163.837C164.156 24.9676 166.276 25.5832 170.791 25.5832ZM170.13 17.5576C166.071 17.5576 164.11 18.3784 163.837 20.8864H176.491C176.286 18.6292 174.804 17.5576 170.13 17.5576Z" fill="#1E1E1E"/>
</g>
<defs>
<clipPath id="clip0_90_6718">
<rect width="129.96" height="38" fill="white" transform="translate(49.5938)"/>
</clipPath>
</defs>
</svg>
