<svg width="24" height="25" viewBox="0 0 24 25" fill="none" xmlns="http://www.w3.org/2000/svg">
<path d="M2.47802 8.41553C2.25 9.29884 2.25 10.4465 2.25 12.5001C2.25 14.8277 2.25 15.9915 2.582 16.9257C3.16141 18.556 4.44414 19.8387 6.07444 20.4181C7.0086 20.7501 8.1724 20.7501 10.5 20.7501H13.5C15.8276 20.7501 16.9914 20.7501 17.9256 20.4181C19.5559 19.8387 20.8386 18.556 21.418 16.9257C21.75 15.9915 21.75 14.8277 21.75 12.5001C21.75 10.4465 21.75 9.29886 21.522 8.41555L17.754 11.1921C16.6402 12.0128 15.7625 12.6596 15.002 13.1179C14.2228 13.5875 13.5145 13.8927 12.7288 13.993C12.2452 14.0548 11.7557 14.0548 11.2721 13.9931C10.4864 13.8928 9.77801 13.5876 8.99883 13.1181C8.23833 12.6598 7.36057 12.013 6.24672 11.1923L2.47802 8.41553Z" fill="white"/>
<path d="M3.09375 7.00448L7.10835 9.96247C8.25881 10.8101 9.08106 11.415 9.77494 11.8332C10.457 12.2442 10.9621 12.441 11.464 12.505C11.8214 12.5507 12.1832 12.5507 12.5406 12.505C13.0425 12.4409 13.5476 12.2441 14.2296 11.8331C14.9235 11.4149 15.7457 10.81 16.8961 9.96225L20.9101 7.00449C20.2292 5.88896 19.1811 5.02754 17.9275 4.582C16.9933 4.25 15.8295 4.25 13.5019 4.25L10.5019 4.25C8.1743 4.25 7.0105 4.25 6.07634 4.582C4.82271 5.02754 3.7746 5.88895 3.09375 7.00448Z" fill="white"/>
</svg>
