<svg width="132" height="20" viewBox="0 0 132 20" fill="none" xmlns="http://www.w3.org/2000/svg">
<path d="M7.22496 4.35699C7.9635 2.33605 8.33278 1.32558 8.81792 0.968059C9.52347 0.448115 10.4854 0.448115 11.1909 0.968059C11.6761 1.32558 12.0453 2.33605 12.7839 4.35699L12.8357 4.49894C13.0068 4.96688 13.0923 5.20085 13.2165 5.39168C13.4989 5.82551 13.9386 6.13294 14.443 6.24931C14.6649 6.30049 14.914 6.30049 15.4122 6.30049H15.8553C17.4241 6.30049 18.2086 6.30049 18.5701 6.44717C19.7424 6.92268 20.1843 8.35341 19.4843 9.40714C19.2684 9.73216 18.6206 10.1745 17.3249 11.0591C16.9546 11.312 16.7695 11.4384 16.6293 11.5826C16.1934 12.0309 15.9923 12.6573 16.0857 13.2756C16.1158 13.4744 16.1945 13.6897 16.3519 14.1204C16.9477 15.7509 17.2457 16.5662 17.2064 17.0103C17.1058 18.147 16.076 18.9693 14.9452 18.8158C14.5034 18.7559 13.7912 18.2958 12.3667 17.3756L11.6306 16.9001C11.1088 16.563 10.8478 16.3945 10.5718 16.3128C10.2015 16.2032 9.80737 16.2032 9.43707 16.3128C9.16102 16.3945 8.90008 16.563 8.37821 16.9001L7.66167 17.363C6.2213 18.2934 5.50112 18.7586 5.05403 18.8171C3.93006 18.9641 2.9087 18.1486 2.80331 17.02C2.76139 16.571 3.06262 15.7467 3.66508 14.0982C3.82199 13.6688 3.90044 13.4541 3.93048 13.2554C4.02255 12.6465 3.82892 12.029 3.40558 11.5817C3.26743 11.4357 3.08454 11.3072 2.71875 11.0501C1.44887 10.1576 0.813934 9.71134 0.602029 9.38148C-0.0741684 8.32889 0.371143 6.92086 1.52963 6.44851C1.89267 6.30049 2.66874 6.30049 4.22089 6.30049H4.60346C5.0951 6.30049 5.34092 6.30049 5.56001 6.25064C6.0688 6.13486 6.5122 5.82482 6.79559 5.38668C6.91761 5.19801 7.00199 4.96713 7.17074 4.50536L7.22496 4.35699Z" fill="#FED00E"/>
<path d="M35.225 4.35699C35.9635 2.33605 36.3328 1.32558 36.8179 0.968059C37.5235 0.448115 38.4854 0.448115 39.1909 0.968059C39.6761 1.32558 40.0453 2.33605 40.7839 4.35699L40.8357 4.49894C41.0068 4.96688 41.0923 5.20085 41.2165 5.39168C41.4989 5.82551 41.9386 6.13294 42.443 6.24931C42.6649 6.30049 42.914 6.30049 43.4122 6.30049H43.8553C45.4241 6.30049 46.2086 6.30049 46.5701 6.44717C47.7424 6.92268 48.1843 8.35341 47.4843 9.40714C47.2684 9.73216 46.6206 10.1745 45.3249 11.0591C44.9546 11.312 44.7695 11.4384 44.6293 11.5826C44.1934 12.0309 43.9923 12.6573 44.0857 13.2756C44.1158 13.4744 44.1945 13.6897 44.3519 14.1204C44.9477 15.7509 45.2457 16.5662 45.2064 17.0103C45.1058 18.147 44.076 18.9693 42.9452 18.8158C42.5034 18.7559 41.7912 18.2958 40.3667 17.3756L39.6306 16.9001C39.1088 16.563 38.8478 16.3945 38.5718 16.3128C38.2015 16.2032 37.8074 16.2032 37.4371 16.3128C37.161 16.3945 36.9001 16.563 36.3782 16.9001L35.6617 17.363C34.2213 18.2934 33.5011 18.7586 33.054 18.8171C31.9301 18.9641 30.9087 18.1486 30.8033 17.02C30.7614 16.571 31.0626 15.7467 31.6651 14.0982C31.822 13.6688 31.9004 13.4541 31.9305 13.2554C32.0225 12.6465 31.8289 12.029 31.4056 11.5817C31.2674 11.4357 31.0845 11.3072 30.7188 11.0501C29.4489 10.1576 28.8139 9.71134 28.602 9.38148C27.9258 8.32889 28.3711 6.92086 29.5296 6.44851C29.8927 6.30049 30.6687 6.30049 32.2209 6.30049H32.6035C33.0951 6.30049 33.3409 6.30049 33.56 6.25064C34.0688 6.13486 34.5122 5.82482 34.7956 5.38668C34.9176 5.19801 35.002 4.96713 35.1707 4.50536L35.225 4.35699Z" fill="#FED00E"/>
<path d="M63.225 4.35699C63.9635 2.33605 64.3328 1.32558 64.8179 0.968059C65.5235 0.448115 66.4854 0.448115 67.1909 0.968059C67.6761 1.32558 68.0453 2.33605 68.7839 4.35699L68.8357 4.49894C69.0068 4.96688 69.0923 5.20085 69.2165 5.39168C69.4989 5.82551 69.9386 6.13294 70.443 6.24931C70.6649 6.30049 70.914 6.30049 71.4122 6.30049H71.8553C73.4241 6.30049 74.2086 6.30049 74.5701 6.44717C75.7424 6.92268 76.1843 8.35341 75.4843 9.40714C75.2684 9.73216 74.6206 10.1745 73.3249 11.0591C72.9546 11.312 72.7695 11.4384 72.6293 11.5826C72.1934 12.0309 71.9923 12.6573 72.0857 13.2756C72.1158 13.4744 72.1945 13.6897 72.3519 14.1204C72.9477 15.7509 73.2457 16.5662 73.2064 17.0103C73.1058 18.147 72.076 18.9693 70.9452 18.8158C70.5034 18.7559 69.7912 18.2958 68.3667 17.3756L67.6306 16.9001C67.1088 16.563 66.8478 16.3945 66.5718 16.3128C66.2015 16.2032 65.8074 16.2032 65.4371 16.3128C65.161 16.3945 64.9001 16.563 64.3782 16.9001L63.6617 17.363C62.2213 18.2934 61.5011 18.7586 61.054 18.8171C59.9301 18.9641 58.9087 18.1486 58.8033 17.02C58.7614 16.571 59.0626 15.7467 59.6651 14.0982C59.822 13.6688 59.9004 13.4541 59.9305 13.2554C60.0225 12.6465 59.8289 12.029 59.4056 11.5817C59.2674 11.4357 59.0845 11.3072 58.7188 11.0501C57.4489 10.1576 56.8139 9.71134 56.602 9.38148C55.9258 8.32889 56.3711 6.92086 57.5296 6.44851C57.8927 6.30049 58.6687 6.30049 60.2209 6.30049H60.6035C61.0951 6.30049 61.3409 6.30049 61.56 6.25064C62.0688 6.13486 62.5122 5.82482 62.7956 5.38668C62.9176 5.19801 63.002 4.96713 63.1707 4.50536L63.225 4.35699Z" fill="#FED00E"/>
<path d="M91.225 4.35699C91.9635 2.33605 92.3328 1.32558 92.8179 0.968059C93.5235 0.448115 94.4854 0.448115 95.1909 0.968059C95.6761 1.32558 96.0453 2.33605 96.7839 4.35699L96.8357 4.49894C97.0068 4.96688 97.0923 5.20085 97.2165 5.39168C97.4989 5.82551 97.9386 6.13294 98.443 6.24931C98.6649 6.30049 98.914 6.30049 99.4122 6.30049H99.8553C101.424 6.30049 102.209 6.30049 102.57 6.44717C103.742 6.92268 104.184 8.35341 103.484 9.40714C103.268 9.73216 102.621 10.1745 101.325 11.0591C100.955 11.312 100.769 11.4384 100.629 11.5826C100.193 12.0309 99.9923 12.6573 100.086 13.2756C100.116 13.4744 100.194 13.6897 100.352 14.1204C100.948 15.7509 101.246 16.5662 101.206 17.0103C101.106 18.147 100.076 18.9693 98.9452 18.8158C98.5034 18.7559 97.7912 18.2958 96.3667 17.3756L95.6306 16.9001C95.1088 16.563 94.8478 16.3945 94.5718 16.3128C94.2015 16.2032 93.8074 16.2032 93.4371 16.3128C93.161 16.3945 92.9001 16.563 92.3782 16.9001L91.6617 17.363C90.2213 18.2934 89.5011 18.7586 89.054 18.8171C87.9301 18.9641 86.9087 18.1486 86.8033 17.02C86.7614 16.571 87.0626 15.7467 87.6651 14.0982C87.822 13.6688 87.9004 13.4541 87.9305 13.2554C88.0225 12.6465 87.8289 12.029 87.4056 11.5817C87.2674 11.4357 87.0845 11.3072 86.7188 11.0501C85.4489 10.1576 84.8139 9.71134 84.602 9.38148C83.9258 8.32889 84.3711 6.92086 85.5296 6.44851C85.8927 6.30049 86.6687 6.30049 88.2209 6.30049H88.6035C89.0951 6.30049 89.3409 6.30049 89.56 6.25064C90.0688 6.13486 90.5122 5.82482 90.7956 5.38668C90.9176 5.19801 91.002 4.96713 91.1707 4.50536L91.225 4.35699Z" fill="#FED00E"/>
<path d="M119.225 4.35699C119.964 2.33605 120.333 1.32558 120.818 0.968059C121.523 0.448115 122.485 0.448115 123.191 0.968059C123.676 1.32558 124.045 2.33605 124.784 4.35699L124.836 4.49894C125.007 4.96688 125.092 5.20085 125.216 5.39168C125.499 5.82552 125.939 6.13294 126.443 6.24931C126.665 6.30049 126.914 6.30049 127.412 6.30049H127.855C129.424 6.30049 130.209 6.30049 130.57 6.44717C131.742 6.92268 132.184 8.35341 131.484 9.40714C131.268 9.73216 130.621 10.1745 129.325 11.0591V11.0591C128.955 11.312 128.769 11.4384 128.629 11.5826C128.193 12.0309 127.992 12.6573 128.086 13.2756C128.116 13.4744 128.194 13.6897 128.352 14.1204V14.1204C128.948 15.7509 129.246 16.5662 129.206 17.0103C129.106 18.147 128.076 18.9693 126.945 18.8158C126.503 18.7559 125.791 18.2958 124.367 17.3756L123.631 16.9001C123.109 16.563 122.848 16.3945 122.572 16.3128C122.201 16.2032 121.807 16.2032 121.437 16.3128C121.161 16.3945 120.9 16.563 120.378 16.9001L119.662 17.363C118.221 18.2934 117.501 18.7586 117.054 18.8171C115.93 18.9641 114.909 18.1486 114.803 17.02C114.761 16.571 115.063 15.7467 115.665 14.0982V14.0982C115.822 13.6688 115.9 13.4541 115.93 13.2554C116.023 12.6465 115.829 12.029 115.406 11.5817C115.267 11.4357 115.085 11.3072 114.719 11.0501V11.0501C113.449 10.1576 112.814 9.71134 112.602 9.38148C111.926 8.32889 112.371 6.92086 113.53 6.44851C113.893 6.30049 114.669 6.30049 116.221 6.30049H116.603C117.095 6.30049 117.341 6.30049 117.56 6.25064C118.069 6.13486 118.512 5.82482 118.796 5.38668C118.918 5.19801 119.002 4.96713 119.171 4.50536L119.225 4.35699Z" fill="#FED00E" fill-opacity="0.3"/>
</svg>
