<svg width="50" height="50" viewBox="0 0 50 50" fill="none" xmlns="http://www.w3.org/2000/svg">
<rect width="50" height="50" rx="5" fill="#443DFC"/>
<path d="M36.5 35.5C37.0523 35.5 37.5 35.0523 37.5 34.5C37.5 33.9477 37.0523 33.5 36.5 33.5C35.9477 33.5 35.5 33.9477 35.5 34.5C35.5 35.0523 35.9477 35.5 36.5 35.5Z" fill="white"/>
<path d="M18 35H11C10.7239 35 10.5 35.2239 10.5 35.5V37C10.5 37.2761 10.7239 37.5 11 37.5H18C18.2761 37.5 18.5 37.2761 18.5 37V35.5C18.5 35.2239 18.2761 35 18 35Z" fill="white"/>
<path d="M17.7984 22.6001L13.6484 34.0001H16.8484L20.5984 23.7001L17.7984 22.6001Z" fill="white"/>
<path d="M27.2984 10.5C25.8169 10.5082 24.3729 10.9669 23.1583 11.8154C21.9436 12.6638 21.016 13.8617 20.4984 15.25L18.1484 21.65L20.9484 22.75L23.3484 16.25C23.6849 15.3187 24.3397 14.5362 25.197 14.0408C26.0544 13.5453 27.0593 13.3687 28.0342 13.5422C29.0091 13.7156 29.8914 14.228 30.5253 14.9887C31.1591 15.7495 31.5038 16.7098 31.4984 17.7V19H34.4984V17.7C34.4853 15.7945 33.7226 13.9707 32.3751 12.6233C31.0277 11.2759 29.204 10.5131 27.2984 10.5Z" fill="white"/>
<path d="M26.5 31.35C27.163 31.35 27.7989 31.0866 28.2678 30.6177C28.7366 30.1489 29 29.513 29 28.85V20.2C27.5805 20.5366 26.3155 21.341 25.4086 22.4837C24.5016 23.6265 24.0055 25.0411 24 26.5V31.35H26.5Z" fill="white"/>
<path d="M37 31.55V22.5C37 21.837 36.7366 21.2011 36.2678 20.7322C35.7989 20.2634 35.163 20 34.5 20H30V28.85C30 29.7783 29.6313 30.6685 28.9749 31.3249C28.3185 31.9813 27.4283 32.35 26.5 32.35H24V35C24 35.663 24.2634 36.2989 24.7322 36.7678C25.2011 37.2366 25.837 37.5 26.5 37.5H36.5C37.2445 37.4892 37.9584 37.2018 38.5029 36.6938C39.0473 36.1858 39.3834 35.4935 39.4458 34.7515C39.5081 34.0095 39.2923 33.2708 38.8403 32.6791C38.3882 32.0874 37.7323 31.685 37 31.55ZM36.5 36.5C36.1044 36.5 35.7178 36.3827 35.3889 36.1629C35.06 35.9432 34.8036 35.6308 34.6522 35.2654C34.5009 34.8999 34.4613 34.4978 34.5384 34.1098C34.6156 33.7219 34.8061 33.3655 35.0858 33.0858C35.3655 32.8061 35.7219 32.6156 36.1098 32.5384C36.4978 32.4613 36.8999 32.5009 37.2654 32.6522C37.6308 32.8036 37.9432 33.06 38.1629 33.3889C38.3827 33.7178 38.5 34.1044 38.5 34.5C38.5 35.0304 38.2893 35.5391 37.9142 35.9142C37.5391 36.2893 37.0304 36.5 36.5 36.5Z" fill="white"/>
</svg>
