<svg width="13" height="16" viewBox="0 0 13 16" fill="none" xmlns="http://www.w3.org/2000/svg">
<path d="M7.24634 3.26337C4.53441 1.45522 3.17844 0.55114 2.06996 0.864478C1.72237 0.962733 1.4002 1.13514 1.12562 1.36984C0.25 2.1183 0.25 3.74802 0.25 7.00747V8.99359C0.25 12.2527 0.25 13.8823 1.12555 14.6307C1.4001 14.8654 1.72225 15.0378 2.06982 15.1361C3.17821 15.4495 4.53413 14.5456 7.24596 12.7379L8.73555 11.745C10.9748 10.2523 12.0945 9.50597 12.297 8.48919C12.3612 8.16686 12.3612 7.83504 12.297 7.51271C12.0946 6.4959 10.975 5.74945 8.73593 4.25654L7.24634 3.26337Z" fill="white"/>
</svg>
