<svg width="26" height="26" viewBox="0 0 26 26" fill="none" xmlns="http://www.w3.org/2000/svg">
<g clip-path="url(#clip0_250_389)">
<path d="M22.2543 12.3732V6.06797C22.2543 4.56942 21.0271 3.33169 19.5285 3.33169H19.189V2.90427C19.189 1.83507 18.3222 0.968295 17.253 0.968295C16.1838 0.968295 15.317 1.83507 15.317 2.90427V3.33169H8.21848V2.90427C8.21848 1.82023 7.33966 0.941406 6.25562 0.941406C5.17158 0.941406 4.29276 1.82023 4.29276 2.90427V3.33169H3.99941C2.5008 3.33169 1.28125 4.56942 1.28125 6.06797V20.546C1.28125 22.0446 2.5008 23.2829 3.99941 23.2829H12.5281C13.9342 24.9649 16.0126 25.9382 18.2049 25.9414C22.2758 25.9414 25.5919 22.6246 25.5919 18.5536C25.592 15.9733 24.244 13.6936 22.2543 12.3732ZM16.3926 2.90427C16.3843 2.43587 16.7572 2.04943 17.2256 2.04115C17.2332 2.04104 17.2407 2.04098 17.2482 2.04104C17.721 2.03604 18.1084 2.41527 18.1134 2.88813C18.1135 2.89351 18.1135 2.89889 18.1134 2.90427V4.99877H16.3926V2.90427ZM5.3683 2.90427C5.37341 2.42237 5.76824 2.03588 6.25014 2.04098C6.251 2.04098 6.2518 2.04098 6.25261 2.04104C6.73628 2.04104 7.14294 2.42065 7.14294 2.90427V4.99877H5.3683V2.90427ZM2.35679 6.06797C2.35679 5.16241 3.09386 4.40722 3.99941 4.40722H4.29276V5.55891C4.29276 5.85587 4.54078 6.07431 4.83779 6.07431H7.66754C7.96449 6.07431 8.21848 5.85587 8.21848 5.55891V4.40722H15.317V5.55891C15.3091 5.83559 15.5269 6.06635 15.8036 6.07431C15.8135 6.07458 15.8234 6.07458 15.8333 6.07431H18.663C18.944 6.08367 19.1794 5.86345 19.1888 5.58247C19.189 5.57462 19.1891 5.56676 19.189 5.55891V4.40722H19.5285C20.4402 4.41642 21.1753 5.15628 21.1787 6.06797V7.79517H2.35679V6.06797ZM3.99941 22.2074C3.09386 22.2074 2.35679 21.4516 2.35679 20.546V8.87071H21.1787V11.7883C20.2426 11.3773 19.2313 11.1653 18.209 11.1657C14.138 11.1657 10.8239 14.4873 10.8239 18.5584C10.8219 19.8373 11.1524 21.0948 11.7832 22.2074H3.99941ZM18.2049 24.8563C14.7213 24.8563 11.8973 22.0323 11.8973 18.5487C11.8973 15.0652 14.7213 12.2412 18.2049 12.2412C21.6884 12.2412 24.5124 15.0652 24.5124 18.5487V18.5488C24.5085 22.0307 21.6868 24.8524 18.2049 24.8563Z" fill="white"/>
<path d="M20.744 18.5506H18.388V15.3149C18.388 15.0179 18.1473 14.7771 17.8503 14.7771C17.5533 14.7771 17.3125 15.0179 17.3125 15.3149V19.0879C17.3172 19.3869 17.5613 19.6267 17.8604 19.6262H20.744C21.041 19.6262 21.2818 19.3854 21.2818 19.0884C21.2818 18.7914 21.041 18.5506 20.744 18.5506Z" fill="white"/>
</g>
<defs>
<clipPath id="clip0_250_389">
<rect width="25" height="25" fill="white" transform="translate(0.9375 0.941528)"/>
</clipPath>
</defs>
</svg>
