<svg width="60" height="60" viewBox="0 0 60 60" fill="none" xmlns="http://www.w3.org/2000/svg">
<path d="M57.4244 27.7747H53.4533L54.7879 22.1887C54.8839 21.785 54.793 21.3675 54.5359 21.041C54.2779 20.7152 53.8922 20.5275 53.4773 20.5275H52.5944V15.959C52.5944 13.9378 50.9504 12.2938 48.9293 12.2938C46.9082 12.2938 45.2633 13.9378 45.2633 15.959V20.5275H44.3804C43.9656 20.5275 43.579 20.7152 43.3219 21.041C43.0647 21.3675 42.973 21.7858 43.0699 22.1887L44.4044 27.7747H29.4147L27.475 23.7607H38.161C39.1622 23.7607 39.9764 22.9464 39.9764 21.9452V17.9724V3.96753C39.9764 2.96639 39.1622 2.1521 38.161 2.1521H9.65073C8.64959 2.1521 7.8353 2.96639 7.8353 3.96753V17.9724V21.9452C7.8353 22.9464 8.64959 23.7607 9.65073 23.7607H20.3376L18.397 27.7747H2.5673C2.21245 27.7747 1.92445 28.0627 1.92445 28.4175V28.6472V28.7458C1.92445 28.7321 1.92445 28.7175 1.92445 28.703V28.817C1.92445 28.8684 1.92445 28.8872 1.92445 28.8821C1.92445 30.4327 1.92359 36.5338 1.92188 57.2055C1.92188 57.5604 2.20987 57.8484 2.56473 57.8484H6.66445C7.0193 57.8484 7.3073 57.5604 7.3073 57.2055V53.7555H22.4933C22.8482 53.7555 23.1362 53.4675 23.1362 53.1127V34.6584H34.0887V40.8675H31.3382C29.9513 40.8675 28.8224 41.9955 28.8224 43.3832V46.3498V50.7787C28.8224 52.0892 28.2884 53.369 27.3576 54.2912L25.5173 56.1135C25.2242 56.405 25.1367 56.8395 25.2936 57.221C25.4504 57.6024 25.819 57.8492 26.2322 57.8492H49.5824C49.9956 57.8492 50.365 57.6024 50.5219 57.2201C50.6796 56.8387 50.5904 56.4032 50.2964 56.1127L48.457 54.2912C47.5253 53.3698 46.9913 52.0892 46.9913 50.7787V46.3498V43.3832C46.9913 41.9964 45.8633 40.8675 44.4764 40.8675H41.7259V34.6584H52.6784V57.2064C52.6784 57.5612 52.9664 57.8492 53.3213 57.8492H57.4202C57.775 57.8492 58.063 57.5612 58.063 57.2064C58.063 57.1138 58.063 57.0375 58.063 56.9758C58.063 56.9347 58.063 56.9021 58.063 56.873V56.9158C58.063 56.8815 58.063 56.8438 58.063 56.8018C58.063 56.7521 58.063 56.7332 58.063 56.7384C58.063 55.1921 58.0639 49.0978 58.0656 28.4192C58.0673 28.0627 57.7802 27.7747 57.4244 27.7747ZM46.5482 15.9598C46.5482 14.6475 47.6162 13.5804 48.9284 13.5804C50.2407 13.5804 51.3079 14.6475 51.3079 15.9598V20.5284H46.5473L46.5482 15.9598ZM44.3187 21.8912C44.3187 21.8904 44.3787 21.8141 44.3787 21.8141L53.5253 21.8372C53.5442 21.8604 53.539 21.8827 53.5373 21.8904V21.8912L52.0827 27.7747L45.7133 27.7267L44.3187 21.8912ZM9.12102 3.96753C9.12102 3.67524 9.35845 3.43781 9.65073 3.43781H38.161C38.4533 3.43781 38.6907 3.67524 38.6907 3.96753V17.3295H9.12102V3.96753ZM9.65073 22.475C9.35845 22.475 9.12102 22.2375 9.12102 21.9452V18.6152H38.6907V21.9452C38.6907 22.2375 38.4533 22.475 38.161 22.475H9.65073ZM21.7647 23.7624H26.0479L27.9876 27.7747H19.825L21.7647 23.7624ZM3.20845 56.5618V34.6592H6.01987V34.8341V34.9095C6.01987 34.8992 6.01987 34.8881 6.01987 34.877V34.9635C6.01987 35.0021 6.01987 35.0175 6.01987 35.0124C6.01987 36.1918 6.02073 40.8341 6.02245 56.5618H3.20845ZM21.8513 52.4681H7.30816V47.6244H21.8513V52.4681ZM21.8513 46.3387H7.30816V41.3775H21.8513V46.3387ZM21.8513 40.0918H7.30816V34.6567H21.8513V40.0918ZM47.5544 55.2032L48.9267 56.5618H43.0219V49.3575C43.0219 49.0027 42.7339 48.7147 42.379 48.7147C42.0242 48.7147 41.7362 49.0027 41.7362 49.3575V56.5618H38.551V53.657C38.551 53.3021 38.263 53.0141 37.9082 53.0141C37.5533 53.0141 37.2653 53.3021 37.2653 53.657V56.5618H34.081V51.9341C34.081 51.5792 33.793 51.2912 33.4382 51.2912C33.0833 51.2912 32.7953 51.5792 32.7953 51.9341V56.561H26.8904L28.2627 55.2024C29.4362 54.041 30.109 52.4278 30.109 50.7761V46.9901H45.7064V50.7761C45.7073 52.4278 46.3802 54.041 47.5544 55.2032ZM44.4773 42.1515C44.9856 42.1515 45.4236 42.4618 45.6104 42.9032C45.673 43.0507 45.7073 43.2118 45.7073 43.3815V45.7052H30.109V43.3815C30.109 42.7035 30.661 42.1515 31.339 42.1515H44.4773ZM35.3753 40.8607V34.6404C35.3753 33.2432 36.511 32.1075 37.9082 32.1075C39.3053 32.1075 40.4419 33.2432 40.4419 34.6404V40.8607H35.3753ZM56.7799 56.5618H53.9667V34.6592H56.7799V56.5618ZM56.7816 33.371H41.4936C40.9673 31.8915 39.5667 30.8218 37.9082 30.8218C36.2504 30.8218 34.8499 31.8907 34.3236 33.371C15.0422 33.371 22.099 33.371 3.21102 33.371V29.0604H56.7824L56.7816 33.371Z" fill="#1E1E1E"/>
<path d="M14.0647 38.1392H15.0873C15.4422 38.1392 15.7302 37.8512 15.7302 37.4964C15.7302 37.1415 15.4422 36.8535 15.0873 36.8535H14.0647C13.7099 36.8535 13.4219 37.1415 13.4219 37.4964C13.4219 37.8512 13.7099 38.1392 14.0647 38.1392Z" fill="#1E1E1E"/>
<path d="M14.0647 44.5423H15.0873C15.4422 44.5423 15.7302 44.2543 15.7302 43.8994C15.7302 43.5446 15.4422 43.2566 15.0873 43.2566H14.0647C13.7099 43.2566 13.4219 43.5446 13.4219 43.8994C13.4219 44.2543 13.7099 44.5423 14.0647 44.5423Z" fill="#1E1E1E"/>
<path d="M14.0647 50.9459H15.0873C15.4422 50.9459 15.7302 50.6579 15.7302 50.303C15.7302 49.9482 15.4422 49.6602 15.0873 49.6602H14.0647C13.7099 49.6602 13.4219 49.9482 13.4219 50.303C13.4219 50.6579 13.7099 50.9459 14.0647 50.9459Z" fill="#1E1E1E"/>
<path d="M37.9058 33.6152C37.2818 33.6152 36.7812 34.1158 36.7812 34.7398C36.7812 35.3638 37.2818 35.8644 37.9058 35.8644C38.5298 35.8644 39.0304 35.3638 39.0304 34.7398C39.0313 34.1158 38.5298 33.6152 37.9058 33.6152Z" fill="#1E1E1E"/>
<path d="M23.9049 19.6208C23.3907 19.6208 22.9844 20.0357 22.9844 20.55C22.9844 21.0548 23.3907 21.4697 23.9049 21.4697C24.4098 21.4697 24.8247 21.0548 24.8247 20.55C24.8255 20.0357 24.4107 19.6208 23.9049 19.6208Z" fill="#1E1E1E"/>
<path d="M48.9281 26.8981C50.0861 26.8981 51.0273 25.9519 51.0273 24.7896C51.0273 23.6316 50.0853 22.6904 48.9281 22.6904C47.771 22.6904 46.8281 23.6324 46.8281 24.7896C46.8281 25.9527 47.771 26.8981 48.9281 26.8981ZM48.9281 23.9761C49.3764 23.9761 49.7416 24.3413 49.7416 24.7896C49.7416 25.243 49.3764 25.6124 48.9281 25.6124C48.479 25.6124 48.1138 25.243 48.1138 24.7896C48.1138 24.3413 48.479 23.9761 48.9281 23.9761Z" fill="#1E1E1E"/>
</svg>
