<svg width="60" height="60" viewBox="0 0 60 60" fill="none" xmlns="http://www.w3.org/2000/svg">
<path d="M38.3066 54.6722H3.64062C3.12313 54.6722 2.70312 54.2531 2.70312 53.7347V2.8125C2.70312 2.295 3.12313 1.875 3.64062 1.875H54.0894C54.6078 1.875 55.0269 2.295 55.0269 2.8125V22.2478C55.0269 22.7653 54.6078 23.1853 54.0894 23.1853C53.5709 23.1853 53.1519 22.7653 53.1519 22.2478V3.75H4.57812V52.7972H38.3075C38.8259 52.7972 39.245 53.2163 39.245 53.7347C39.245 54.2531 38.825 54.6722 38.3066 54.6722Z" fill="#1E1E1E"/>
<path d="M38.3059 49.6011H31.5156C30.9972 49.6011 30.5781 49.182 30.5781 48.6636C30.5781 48.1451 30.9972 47.7261 31.5156 47.7261H38.3059C38.8244 47.7261 39.2434 48.1451 39.2434 48.6636C39.2434 49.182 38.8244 49.6011 38.3059 49.6011Z" fill="#1E1E1E"/>
<path d="M48.8669 23.1852C48.3484 23.1852 47.9294 22.7652 47.9294 22.2477V8.81055H31.5156C30.9972 8.81055 30.5781 8.39055 30.5781 7.87305C30.5781 7.35555 30.9972 6.93555 31.5156 6.93555H48.8669C49.3853 6.93555 49.8044 7.35555 49.8044 7.87305V22.2477C49.8044 22.7652 49.3853 23.1852 48.8669 23.1852Z" fill="#1E1E1E"/>
<path d="M26.2106 49.6061H8.85938C8.34188 49.6061 7.92188 49.187 7.92188 48.6686V7.87793C7.92188 7.36043 8.34188 6.94043 8.85938 6.94043H26.2106C26.7281 6.94043 27.1481 7.36043 27.1481 7.87793C27.1481 8.39543 26.7281 8.81543 26.2106 8.81543H9.79688V47.7311H26.2106C26.7281 47.7311 27.1481 48.1501 27.1481 48.6686C27.1481 49.187 26.7281 49.6061 26.2106 49.6061Z" fill="#1E1E1E"/>
<path d="M26.2109 49.6061C25.6934 49.6061 25.2734 49.187 25.2734 48.6686V7.87793C25.2734 7.36043 25.6934 6.94043 26.2109 6.94043C26.7284 6.94043 27.1484 7.36043 27.1484 7.87793V48.6686C27.1484 49.187 26.7284 49.6061 26.2109 49.6061Z" fill="#1E1E1E"/>
<path d="M31.5156 49.6061C30.9972 49.6061 30.5781 49.187 30.5781 48.6686V7.87793C30.5781 7.36043 30.9972 6.94043 31.5156 6.94043C32.0341 6.94043 32.4531 7.36043 32.4531 7.87793V48.6686C32.4531 49.187 32.0341 49.6061 31.5156 49.6061Z" fill="#1E1E1E"/>
<path d="M12.6714 19.47C12.4267 19.47 12.183 19.3744 11.9992 19.1859C11.6383 18.8147 11.6476 18.2212 12.0189 17.8603L18.9236 11.1516C19.2948 10.7906 19.8883 10.8 20.2492 11.1712C20.6101 11.5425 20.6008 12.1359 20.2295 12.4969L13.3248 19.2056C13.143 19.3819 12.9067 19.47 12.6714 19.47Z" fill="#1E1E1E"/>
<path d="M15.4839 22.3922C15.2392 22.3922 14.9955 22.2966 14.8117 22.1082C14.4508 21.7369 14.4601 21.1435 14.8314 20.7825L17.1742 18.5063C17.5455 18.1454 18.1389 18.1547 18.4998 18.526C18.8608 18.8972 18.8514 19.4907 18.4801 19.8516L16.1373 22.1279C15.9555 22.3041 15.7192 22.3922 15.4839 22.3922Z" fill="#1E1E1E"/>
<path d="M20.2573 17.7571C20.0126 17.7571 19.7689 17.6624 19.5851 17.4731C19.2242 17.1018 19.2336 16.5084 19.6048 16.1474L21.7376 14.0746C22.1089 13.7146 22.7023 13.7221 23.0633 14.0943C23.4242 14.4656 23.4148 15.059 23.0436 15.4199L20.9108 17.4928C20.728 17.669 20.4926 17.7571 20.2573 17.7571Z" fill="#1E1E1E"/>
<path d="M49.3397 33.2849C48.99 33.2849 48.6544 33.0881 48.4931 32.7524C47.4488 30.5662 43.7559 30.4752 43.7194 30.4743C43.2075 30.4649 42.7969 30.0477 42.7969 29.5368V27.1331C42.7969 26.6343 43.1869 26.2227 43.6847 26.1965C45.5156 26.1009 47.3766 26.0709 49.2131 26.114L52.7869 26.1956C53.4272 26.1956 54.0225 26.549 54.3206 27.1199C54.6037 27.6618 54.5616 28.3115 54.21 28.8149C53.7225 29.5134 53.1347 30.6974 53.0981 32.3671C53.0869 32.8846 52.6697 33.3009 52.1409 33.2849C51.6225 33.2737 51.2128 32.8443 51.2231 32.3277C51.2644 30.4227 51.8775 28.9968 52.4597 28.064L49.1709 27.989C47.6737 27.9552 46.1672 27.9693 44.6709 28.0284V28.6743C46.1625 28.8656 49.0369 29.5424 50.1844 31.9424C50.4075 32.4102 50.2097 32.9699 49.7428 33.1931C49.6125 33.2559 49.4747 33.2849 49.3397 33.2849Z" fill="#1E1E1E"/>
<path d="M53.3997 37.157H48.0625C47.5441 37.157 47.125 36.738 47.125 36.2195V32.3477C47.125 31.8292 47.5441 31.4102 48.0625 31.4102H53.3997C53.9181 31.4102 54.3372 31.8292 54.3372 32.3477V36.2195C54.3372 36.738 53.9181 37.157 53.3997 37.157ZM49 35.282H52.4622V33.2852H49V35.282Z" fill="#1E1E1E"/>
<path d="M54.1519 58.125L46.141 58.1231C45.106 58.1231 44.1853 57.5194 43.7953 56.5856C42.3731 53.1966 43.216 48.5166 43.3988 47.6128C43.5338 46.9481 43.7953 46.3163 44.1778 45.7359C44.9653 44.5406 47.5266 40.4475 47.4197 37.9988C47.3906 37.3509 47.3485 36.7622 47.3072 36.3C47.2613 35.7844 47.6419 35.3288 48.1575 35.2828C48.6863 35.2341 49.1278 35.6184 49.1747 36.1331C49.2178 36.6169 49.2619 37.2347 49.2928 37.9144C49.4156 40.7409 47.1225 44.6728 45.7435 46.7653C45.4941 47.1441 45.3235 47.5547 45.2372 47.9841C44.7835 50.22 44.5866 53.6241 45.525 55.86C45.6225 56.0916 45.8691 56.2463 46.141 56.2463L54.1519 56.25C54.4528 56.25 54.7228 56.0597 54.7941 55.7972C56.8622 48.1284 53.266 37.9031 52.5244 35.9316C52.3416 35.4459 52.5863 34.9059 53.071 34.7241C53.5556 34.5403 54.0966 34.7859 54.2785 35.2706C55.3706 38.1741 58.7663 48.2691 56.6044 56.2866C56.3119 57.3684 55.3031 58.125 54.1519 58.125Z" fill="#1E1E1E"/>
<path d="M42.7498 35.1533C42.3204 35.1533 41.9323 34.8561 41.8348 34.4192C41.7232 33.9139 42.0419 33.4133 42.5473 33.3008C44.0838 32.9605 45.2594 30.567 45.5819 29.6736C45.7573 29.187 46.2926 28.933 46.781 29.1102C47.2676 29.2855 47.5207 29.8208 47.3463 30.3074C47.1926 30.7358 45.7657 34.5074 42.9532 35.1317C42.8848 35.1458 42.8173 35.1533 42.7498 35.1533Z" fill="#1E1E1E"/>
<path d="M40.3826 24.6684C39.8923 24.6684 39.4676 24.2906 39.431 23.8012C39.3569 22.815 38.9351 20.4918 36.6223 20.2106C36.1619 20.1543 35.8113 19.7709 35.7973 19.3068C35.7841 18.8428 36.1123 18.4397 36.5688 18.3572C38.9294 17.9325 39.3663 15.9384 39.4169 14.7881C39.4385 14.2865 39.8519 13.8918 40.3535 13.8918C40.8673 13.8918 41.3144 14.3053 41.3201 14.819C41.3416 16.7765 42.2876 17.969 44.1316 18.3628C44.5732 18.4575 44.8854 18.8531 44.8732 19.304C44.861 19.755 44.5291 20.1337 44.0829 20.205C41.9191 20.549 41.4204 22.6115 41.3154 23.8106C41.2741 24.2972 40.8691 24.6684 40.3826 24.6684ZM39.1685 19.2647C39.6644 19.6434 40.0648 20.1122 40.3798 20.6325C40.706 20.1 41.1091 19.6481 41.5807 19.2862C41.0829 18.9375 40.6657 18.509 40.3376 18.0112C40.046 18.464 39.6654 18.8981 39.1685 19.2647Z" fill="#1E1E1E"/>
<path d="M17.5769 42.9289C17.0866 42.9289 16.6629 42.5511 16.6263 42.0617C16.5523 41.0755 16.1304 38.7533 13.8166 38.472C13.3563 38.4148 13.0057 38.0314 12.9926 37.5673C12.9794 37.1042 13.3066 36.7002 13.7632 36.6177C16.1229 36.193 16.5607 34.1989 16.6123 33.0486C16.6348 32.547 17.0473 32.1523 17.5488 32.1523C18.0626 32.1523 18.5088 32.5648 18.5154 33.0786C18.5379 35.037 19.4838 36.2286 21.3269 36.6233C21.7685 36.718 22.0798 37.1127 22.0685 37.5645C22.0573 38.0164 21.7244 38.3952 21.2791 38.4655C19.1163 38.8105 18.6166 40.873 18.5116 42.073C18.4685 42.5577 18.0635 42.9289 17.5769 42.9289ZM16.3629 37.5242C16.8598 37.903 17.2601 38.3717 17.5741 38.893C17.9013 38.3614 18.3044 37.9086 18.7751 37.5467C18.2782 37.197 17.861 36.7695 17.5319 36.2708C17.2394 36.7245 16.8588 37.1586 16.3629 37.5242Z" fill="#1E1E1E"/>
</svg>
