<svg width="133" height="20" viewBox="0 0 133 20" fill="none" xmlns="http://www.w3.org/2000/svg">
<path d="M7.55308 4.35699C8.29163 2.33605 8.6609 1.32558 9.14605 0.968059C9.8516 0.448115 10.8135 0.448115 11.519 0.968059C12.0042 1.32558 12.3735 2.33605 13.112 4.35699L13.1639 4.49894C13.3349 4.96688 13.4204 5.20085 13.5446 5.39168C13.8271 5.82551 14.2667 6.13294 14.7711 6.24931C14.993 6.30049 15.2421 6.30049 15.7403 6.30049H16.1834C17.7523 6.30049 18.5367 6.30049 18.8983 6.44717C20.0705 6.92268 20.5124 8.35341 19.8124 9.40714C19.5965 9.73216 18.9487 10.1745 17.6531 11.0591C17.2828 11.312 17.0976 11.4384 16.9574 11.5826C16.5216 12.0309 16.3204 12.6573 16.4139 13.2756C16.4439 13.4744 16.5226 13.6897 16.68 14.1204C17.2759 15.7509 17.5738 16.5662 17.5345 17.0103C17.4339 18.147 16.4041 18.9693 15.2733 18.8158C14.8316 18.7559 14.1193 18.2958 12.6948 17.3756L11.9587 16.9001C11.4369 16.563 11.1759 16.3945 10.8999 16.3128C10.5296 16.2032 10.1355 16.2032 9.76519 16.3128C9.48914 16.3945 9.2282 16.563 8.70633 16.9001L7.98979 17.363C6.54942 18.2934 5.82924 18.7586 5.38215 18.8171C4.25819 18.9641 3.23683 18.1486 3.13143 17.02C3.08951 16.571 3.39074 15.7467 3.99321 14.0982C4.15011 13.6688 4.22856 13.4541 4.25861 13.2554C4.35067 12.6465 4.15704 12.029 3.73371 11.5817C3.59555 11.4357 3.41266 11.3072 3.04688 11.0501C1.777 10.1576 1.14206 9.71134 0.930154 9.38148C0.253957 8.32889 0.699268 6.92086 1.85775 6.44851C2.22079 6.30049 2.99687 6.30049 4.54902 6.30049H4.93159C5.42323 6.30049 5.66905 6.30049 5.88813 6.25064C6.39693 6.13486 6.84033 5.82482 7.12371 5.38668C7.24574 5.19801 7.33011 4.96713 7.49887 4.50536L7.55308 4.35699Z" fill="#FED00E"/>
<path d="M35.5531 4.35699C36.2916 2.33605 36.6609 1.32558 37.146 0.968059C37.8516 0.448115 38.8135 0.448115 39.519 0.968059C40.0042 1.32558 40.3735 2.33605 41.112 4.35699L41.1639 4.49894C41.3349 4.96688 41.4204 5.20085 41.5446 5.39168C41.8271 5.82551 42.2667 6.13294 42.7711 6.24931C42.993 6.30049 43.2421 6.30049 43.7403 6.30049H44.1834C45.7523 6.30049 46.5367 6.30049 46.8983 6.44717C48.0705 6.92268 48.5124 8.35341 47.8124 9.40714C47.5965 9.73216 46.9487 10.1745 45.6531 11.0591C45.2828 11.312 45.0976 11.4384 44.9574 11.5826C44.5216 12.0309 44.3204 12.6573 44.4139 13.2756C44.4439 13.4744 44.5226 13.6897 44.68 14.1204C45.2759 15.7509 45.5738 16.5662 45.5345 17.0103C45.4339 18.147 44.4041 18.9693 43.2733 18.8158C42.8316 18.7559 42.1193 18.2958 40.6948 17.3756L39.9587 16.9001C39.4369 16.563 39.1759 16.3945 38.8999 16.3128C38.5296 16.2032 38.1355 16.2032 37.7652 16.3128C37.4891 16.3945 37.2282 16.563 36.7063 16.9001L35.9898 17.363C34.5494 18.2934 33.8292 18.7586 33.3822 18.8171C32.2582 18.9641 31.2368 18.1486 31.1314 17.02C31.0895 16.571 31.3907 15.7467 31.9932 14.0982C32.1501 13.6688 32.2286 13.4541 32.2586 13.2554C32.3507 12.6465 32.157 12.029 31.7337 11.5817C31.5956 11.4357 31.4127 11.3072 31.0469 11.0501C29.777 10.1576 29.1421 9.71134 28.9302 9.38148C28.254 8.32889 28.6993 6.92086 29.8578 6.44851C30.2208 6.30049 30.9969 6.30049 32.549 6.30049H32.9316C33.4232 6.30049 33.669 6.30049 33.8881 6.25064C34.3969 6.13486 34.8403 5.82482 35.1237 5.38668C35.2457 5.19801 35.3301 4.96713 35.4989 4.50536L35.5531 4.35699Z" fill="#FED00E"/>
<path d="M63.5531 4.35699C64.2916 2.33605 64.6609 1.32558 65.146 0.968059C65.8516 0.448115 66.8135 0.448115 67.519 0.968059C68.0042 1.32558 68.3735 2.33605 69.112 4.35699L69.1639 4.49894C69.3349 4.96688 69.4204 5.20085 69.5446 5.39168C69.8271 5.82551 70.2667 6.13294 70.7711 6.24931C70.993 6.30049 71.2421 6.30049 71.7403 6.30049H72.1834C73.7523 6.30049 74.5367 6.30049 74.8983 6.44717C76.0705 6.92268 76.5124 8.35341 75.8124 9.40714C75.5965 9.73216 74.9487 10.1745 73.6531 11.0591C73.2828 11.312 73.0976 11.4384 72.9574 11.5826C72.5216 12.0309 72.3204 12.6573 72.4139 13.2756C72.4439 13.4744 72.5226 13.6897 72.68 14.1204C73.2759 15.7509 73.5738 16.5662 73.5345 17.0103C73.4339 18.147 72.4041 18.9693 71.2733 18.8158C70.8316 18.7559 70.1193 18.2958 68.6948 17.3756L67.9587 16.9001C67.4369 16.563 67.1759 16.3945 66.8999 16.3128C66.5296 16.2032 66.1355 16.2032 65.7652 16.3128C65.4891 16.3945 65.2282 16.563 64.7063 16.9001L63.9898 17.363C62.5494 18.2934 61.8292 18.7586 61.3822 18.8171C60.2582 18.9641 59.2368 18.1486 59.1314 17.02C59.0895 16.571 59.3907 15.7467 59.9932 14.0982C60.1501 13.6688 60.2286 13.4541 60.2586 13.2554C60.3507 12.6465 60.157 12.029 59.7337 11.5817C59.5956 11.4357 59.4127 11.3072 59.0469 11.0501C57.777 10.1576 57.1421 9.71134 56.9302 9.38148C56.254 8.32889 56.6993 6.92086 57.8578 6.44851C58.2208 6.30049 58.9969 6.30049 60.549 6.30049H60.9316C61.4232 6.30049 61.669 6.30049 61.8881 6.25064C62.3969 6.13486 62.8403 5.82482 63.1237 5.38668C63.2457 5.19801 63.3301 4.96713 63.4989 4.50536L63.5531 4.35699Z" fill="#FED00E"/>
<path d="M91.5531 4.35699C92.2916 2.33605 92.6609 1.32558 93.146 0.968059C93.8516 0.448115 94.8135 0.448115 95.519 0.968059C96.0042 1.32558 96.3735 2.33605 97.112 4.35699L97.1639 4.49894C97.3349 4.96688 97.4204 5.20085 97.5446 5.39168C97.8271 5.82551 98.2667 6.13294 98.7711 6.24931C98.993 6.30049 99.2421 6.30049 99.7403 6.30049H100.183C101.752 6.30049 102.537 6.30049 102.898 6.44717C104.071 6.92268 104.512 8.35341 103.812 9.40714C103.597 9.73216 102.949 10.1745 101.653 11.0591C101.283 11.312 101.098 11.4384 100.957 11.5826C100.522 12.0309 100.32 12.6573 100.414 13.2756C100.444 13.4744 100.523 13.6897 100.68 14.1204C101.276 15.7509 101.574 16.5662 101.535 17.0103C101.434 18.147 100.404 18.9693 99.2733 18.8158C98.8316 18.7559 98.1193 18.2958 96.6948 17.3756L95.9587 16.9001C95.4369 16.563 95.1759 16.3945 94.8999 16.3128C94.5296 16.2032 94.1355 16.2032 93.7652 16.3128C93.4891 16.3945 93.2282 16.563 92.7063 16.9001L91.9898 17.363C90.5494 18.2934 89.8292 18.7586 89.3822 18.8171C88.2582 18.9641 87.2368 18.1486 87.1314 17.02C87.0895 16.571 87.3907 15.7467 87.9932 14.0982C88.1501 13.6688 88.2286 13.4541 88.2586 13.2554C88.3507 12.6465 88.157 12.029 87.7337 11.5817C87.5956 11.4357 87.4127 11.3072 87.0469 11.0501C85.777 10.1576 85.1421 9.71134 84.9302 9.38148C84.254 8.32889 84.6993 6.92086 85.8578 6.44851C86.2208 6.30049 86.9969 6.30049 88.549 6.30049H88.9316C89.4232 6.30049 89.669 6.30049 89.8881 6.25064C90.3969 6.13486 90.8403 5.82482 91.1237 5.38668C91.2457 5.19801 91.3301 4.96713 91.4989 4.50536L91.5531 4.35699Z" fill="#FED00E"/>
<path d="M119.553 4.35699C120.292 2.33605 120.661 1.32558 121.146 0.968059C121.852 0.448115 122.813 0.448115 123.519 0.968059C124.004 1.32558 124.373 2.33605 125.112 4.35699L125.164 4.49894C125.335 4.96688 125.42 5.20085 125.545 5.39168C125.827 5.82551 126.267 6.13294 126.771 6.24931C126.993 6.30049 127.242 6.30049 127.74 6.30049H128.183C129.752 6.30049 130.537 6.30049 130.898 6.44717C132.071 6.92268 132.512 8.35341 131.812 9.40714C131.597 9.73216 130.949 10.1745 129.653 11.0591C129.283 11.312 129.098 11.4384 128.957 11.5826C128.522 12.0309 128.32 12.6573 128.414 13.2756C128.444 13.4744 128.523 13.6897 128.68 14.1204C129.276 15.7509 129.574 16.5662 129.535 17.0103C129.434 18.147 128.404 18.9693 127.273 18.8158C126.832 18.7559 126.119 18.2958 124.695 17.3756L123.959 16.9001C123.437 16.563 123.176 16.3945 122.9 16.3128C122.53 16.2032 122.135 16.2032 121.765 16.3128C121.489 16.3945 121.228 16.563 120.706 16.9001L119.99 17.363C118.549 18.2934 117.829 18.7586 117.382 18.8171C116.258 18.9641 115.237 18.1486 115.131 17.02C115.09 16.571 115.391 15.7467 115.993 14.0982C116.15 13.6688 116.229 13.4541 116.259 13.2554C116.351 12.6465 116.157 12.029 115.734 11.5817C115.596 11.4357 115.413 11.3072 115.047 11.0501C113.777 10.1576 113.142 9.71134 112.93 9.38148C112.254 8.32889 112.699 6.92086 113.858 6.44851C114.221 6.30049 114.997 6.30049 116.549 6.30049H116.932C117.423 6.30049 117.669 6.30049 117.888 6.25064C118.397 6.13486 118.84 5.82482 119.124 5.38668C119.246 5.19801 119.33 4.96713 119.499 4.50536L119.553 4.35699Z" fill="#FED00E"/>
</svg>
