<svg width="30" height="30" viewBox="0 0 30 30" fill="none" xmlns="http://www.w3.org/2000/svg">
<path d="M3.49112 24.7411C3.00296 25.2293 3.00296 26.0207 3.49112 26.5089C3.97927 26.997 4.77073 26.997 5.25888 26.5089L3.49112 24.7411ZM26.5089 5.25888C26.997 4.77073 26.997 3.97927 26.5089 3.49112C26.0207 3.00296 25.2293 3.00296 24.7411 3.49112L26.5089 5.25888ZM5.25888 26.5089L14.6339 17.1339L12.8661 15.3661L3.49112 24.7411L5.25888 26.5089ZM17.1339 14.6339L26.5089 5.25888L24.7411 3.49112L15.3661 12.8661L17.1339 14.6339Z" fill="white"/>
<path d="M7.75444 2.8125L5.3388 2.8125C3.99223 2.8125 3.31894 2.8125 3.03744 3.16692C2.94965 3.27745 2.88795 3.40638 2.85695 3.54409C2.75754 3.98565 3.17991 4.50997 4.02465 5.55862L20.9413 26.5586C21.1622 26.8328 21.2726 26.9699 21.4181 27.0562C21.4661 27.0847 21.5166 27.1089 21.5689 27.1284C21.7274 27.1875 21.9034 27.1875 22.2555 27.1875H24.6621C26.0083 27.1875 26.6814 27.1875 26.9629 26.8332C27.0507 26.7226 27.1124 26.5937 27.1434 26.4561C27.2429 26.0146 26.8208 25.4903 25.9766 24.4417L9.06886 3.44172C8.848 3.16741 8.73757 3.03025 8.59206 2.94386C8.54404 2.91535 8.49357 2.89119 8.44125 2.87167C8.2827 2.8125 8.10661 2.8125 7.75444 2.8125Z" fill="white"/>
</svg>
